<svg width="17" height="16" viewBox="0 0 17 16" fill="none" xmlns="http://www.w3.org/2000/svg">
<path d="M7.75391 2.66699H3.08724C2.73362 2.66699 2.39448 2.80747 2.14443 3.05752C1.89438 3.30756 1.75391 3.6467 1.75391 4.00033V13.3337C1.75391 13.6873 1.89438 14.0264 2.14443 14.2765C2.39448 14.5265 2.73362 14.667 3.08724 14.667H12.4206C12.7742 14.667 13.1133 14.5265 13.3634 14.2765C13.6134 14.0264 13.7539 13.6873 13.7539 13.3337V8.66699" stroke="#801D80" stroke-linecap="round" stroke-linejoin="round" stroke-width="1.5" />
<path d="M12.7539 1.66617C13.0191 1.40095 13.3788 1.25195 13.7539 1.25195C14.129 1.25195 14.4887 1.40095 14.7539 1.66617C15.0191 1.93138 15.1681 2.29109 15.1681 2.66617C15.1681 3.04124 15.0191 3.40095 14.7539 3.66617L8.42057 9.9995L5.75391 10.6662L6.42057 7.9995L12.7539 1.66617Z" stroke="#801D80" stroke-linecap="round" stroke-linejoin="round" stroke-width="1.5" />
</svg>