<svg width="29" height="28" viewBox="0 0 29 28" fill="none" xmlns="http://www.w3.org/2000/svg">
<circle cx="14.4199" cy="14" r="14" fill="url(#paint0_linear_13502_119057)"/>
<path d="M24.7284 19.4934C24.4925 19.194 11.5381 19.3687 5.09046 19.4934C5.40998 19.8409 24.2369 19.6271 24.4089 19.7607C24.5809 19.8944 24.7776 21.0134 24.5318 21.124C23.819 21.4448 5.40998 21.4715 5.09046 21.2577C4.83485 21.0866 4.59071 20.1172 4.50059 19.6538C4.27938 20.2152 4.54974 21.1775 4.86926 21.5517C5.18878 21.926 24.7284 21.8992 24.925 21.4448C25.1217 20.9904 25.0234 19.8677 24.7284 19.4934Z" fill="white"/>
<path d="M22.4667 18.1198C22.0797 18.4221 16.4683 18.5696 13.7109 18.4437C14.0012 18.8215 22.4667 18.8215 22.9504 18.3627C23.4342 17.9039 23.3616 9.13276 22.8053 8.37709C22.249 7.62142 7.34973 7.81034 6.74506 8.26914C6.14038 8.72794 6.04363 18.2008 6.59993 18.4706C7.04498 18.6865 8.44622 18.6506 9.09121 18.4706C8.43815 18.5246 6.95306 18.3033 6.81762 18.0658C6.64831 17.769 6.30969 9.32167 7.0353 8.64697C7.67095 8.05592 22.2248 8.08022 22.5634 8.75492C22.902 9.42963 23.144 17.5907 22.4667 18.1198Z" fill="white"/>
<path d="M13.2247 17.7183C13.5536 18.0421 13.6036 19.0407 13.5875 19.4185H13.2488C13.2569 19.1037 13.2295 18.3012 13.0553 18.0421C12.8377 17.7183 10.5157 17.7723 9.91101 17.8802C9.49067 17.9553 9.29828 18.8158 9.25796 19.2836C9.24184 18.8608 9.31118 18.0475 9.71752 17.7453C10.2254 17.3674 12.8135 17.3135 13.2247 17.7183Z" fill="white"/>
<path d="M24.3267 6.9453C24.8491 7.42029 24.5444 15.5095 24.3267 19.4948H23.8671C24.0942 15.6805 24.4411 7.92227 24.0123 7.4041C23.4762 6.75639 6.23472 6.9453 5.75098 7.24217C5.36399 7.47967 5.29948 15.3836 5.31561 19.3059C5.15436 15.3836 4.95764 7.42029 5.46073 6.9453C6.0896 6.35157 23.6736 6.35157 24.3267 6.9453Z" fill="white"/>
<circle cx="14.498" cy="14" r="14" fill="#F23030"/>
<path d="M14.4973 7.125C14.159 7.125 13.8496 7.4125 13.8723 7.75L14.1848 16.1875C14.1848 16.2704 14.2177 16.3499 14.2763 16.4085C14.3349 16.4671 14.4144 16.5 14.4973 16.5C14.5801 16.5 14.6596 16.4671 14.7182 16.4085C14.7768 16.3499 14.8098 16.2704 14.8098 16.1875L15.1223 7.75C15.1449 7.4125 14.8355 7.125 14.4973 7.125Z" stroke="white" stroke-width="1.5" stroke-linecap="round" stroke-linejoin="round"/>
<path d="M14.498 20.875C14.8432 20.875 15.123 20.5952 15.123 20.25C15.123 19.9048 14.8432 19.625 14.498 19.625C14.1529 19.625 13.873 19.9048 13.873 20.25C13.873 20.5952 14.1529 20.875 14.498 20.875Z" stroke="white" stroke-width="1.5" stroke-linecap="round" stroke-linejoin="round"/>
<defs>
<linearGradient id="paint0_linear_13502_119057" x1="28.4199" y1="-11" x2="2.91992" y2="31.5" gradientUnits="userSpaceOnUse">
<stop stop-color="#9ECCFF"/>
<stop offset="1" stop-color="#6D8EB3"/>
</linearGradient>
</defs>
</svg>
