<svg width="16" height="16" viewBox="0 0 16 16" fill="none" xmlns="http://www.w3.org/2000/svg">
<path d="M8 4V8L10.6667 9.33333" stroke="#2C3E50" stroke-width="1.5" stroke-linecap="round" stroke-linejoin="round"/>
<path d="M10.6675 14.1059C9.46922 14.6294 8.14345 14.7889 6.85519 14.5646C5.56694 14.3403 4.37309 13.7421 3.42223 12.8445C2.47137 11.9468 1.8055 10.7893 1.50748 9.51612C1.20946 8.24289 1.29246 6.91014 1.74615 5.68373C2.19984 4.45732 3.00418 3.39141 4.05906 2.61867C5.11395 1.84593 6.3728 1.40048 7.67893 1.33775C8.98506 1.27503 10.2808 1.59781 11.4049 2.26592C12.5289 2.93402 13.4317 3.91795 14.0008 5.09525" stroke="#2C3E50" stroke-width="1.5" stroke-linecap="round" stroke-linejoin="round"/>
<path d="M13.334 7.66602V11.666" stroke="#2C3E50" stroke-width="1.5" stroke-linecap="round" stroke-linejoin="round"/>
<path d="M13.334 14.334H13.3407" stroke="#2C3E50" stroke-width="2" stroke-linecap="round" stroke-linejoin="round"/>
</svg>
