<svg width="16" height="16" viewBox="0 0 16 16" fill="none" xmlns="http://www.w3.org/2000/svg">
<g clip-path="url(#clip0_17660_2290)">
<path d="M4.66602 6.66602V14.666" stroke="#283B52" stroke-width="1.5" stroke-linecap="round" stroke-linejoin="round"/>
<path d="M10.0007 3.92065L9.33398 6.66732H13.2207C13.4276 6.66732 13.6318 6.71551 13.8169 6.80808C14.0021 6.90065 14.1631 7.03506 14.2873 7.20065C14.4115 7.36625 14.4954 7.55848 14.5325 7.76214C14.5695 7.96579 14.5586 8.17527 14.5007 8.37398L12.9473 13.7073C12.8665 13.9843 12.6981 14.2276 12.4673 14.4007C12.2365 14.5737 11.9558 14.6673 11.6673 14.6673H2.66732C2.3137 14.6673 1.97456 14.5268 1.72451 14.2768C1.47446 14.0267 1.33398 13.6876 1.33398 13.334V8.00065C1.33398 7.64703 1.47446 7.30789 1.72451 7.05784C1.97456 6.80779 2.3137 6.66732 2.66732 6.66732H4.50732C4.75537 6.66719 4.99848 6.59786 5.20929 6.46713C5.4201 6.3364 5.59027 6.14946 5.70065 5.92732L8.00065 1.33398C8.31504 1.33788 8.62448 1.41276 8.90585 1.55305C9.18723 1.69333 9.43327 1.89539 9.62559 2.14412C9.81791 2.39285 9.95153 2.68182 10.0165 2.98945C10.0814 3.29708 10.076 3.61541 10.0007 3.92065Z" stroke="#283B52" stroke-width="1.5" stroke-linecap="round" stroke-linejoin="round"/>
</g>
<defs>
<clipPath id="clip0_17660_2290">
<rect width="16" height="16" fill="white"/>
</clipPath>
</defs>
</svg>
