<svg id="svg" version="1.1" xmlns="http://www.w3.org/2000/svg" xmlns:xlink="http://www.w3.org/1999/xlink" width="400" height="400" viewBox="0, 0, 400,400"><g id="svgg"><path id="path0" d="M203.348 26.176 C 201.544 26.961,201.403 27.365,201.387 31.800 C 201.362 38.715,200.753 39.021,187.671 38.696 C 175.777 38.400,175.941 38.314,176.099 44.733 L 176.200 48.865 174.835 50.085 C 173.500 51.278,173.399 51.301,170.319 51.089 C 164.548 50.694,163.479 51.618,163.604 56.891 C 163.700 60.978,163.651 61.210,162.431 62.431 C 161.289 63.573,161.164 63.600,157.120 63.600 C 151.250 63.600,151.200 63.647,151.200 69.169 C 151.200 76.345,150.707 76.593,137.149 76.245 C 125.811 75.954,126.291 75.736,126.363 81.144 C 126.464 88.591,125.812 88.945,112.402 88.745 L 102.732 88.600 101.966 89.544 C 101.320 90.340,101.200 91.146,101.200 94.667 L 101.200 98.845 99.900 100.040 C 98.622 101.215,98.535 101.233,94.783 101.118 C 89.075 100.942,88.800 101.193,88.800 106.595 C 88.800 110.697,88.778 110.798,87.559 112.186 L 86.317 113.600 82.021 113.600 C 76.509 113.600,76.578 113.529,76.278 119.540 C 75.968 125.745,75.074 126.535,68.837 126.108 C 64.164 125.787,63.600 126.436,63.600 132.127 C 63.600 138.163,63.201 138.533,56.667 138.575 C 50.740 138.613,51.200 137.109,51.200 156.457 C 51.200 176.964,51.365 176.514,43.998 176.094 C 40.820 175.913,40.428 175.972,39.652 176.748 L 38.800 177.600 38.800 237.591 L 38.800 297.582 39.887 298.291 C 40.768 298.866,41.671 298.978,44.664 298.885 C 48.258 298.774,48.389 298.801,49.677 299.952 L 51.000 301.133 51.200 311.753 C 51.442 324.615,51.062 323.782,56.727 323.839 C 63.573 323.908,63.609 323.976,63.631 336.828 C 63.653 349.225,63.782 349.486,69.636 348.942 C 74.975 348.446,76.400 349.918,76.400 355.933 C 76.400 359.045,76.541 360.084,77.029 360.571 C 77.825 361.368,76.736 361.286,87.548 361.368 C 99.383 361.458,98.800 361.750,98.800 355.731 L 98.800 351.520 100.174 350.146 L 101.548 348.772 105.528 348.886 C 111.726 349.064,111.200 350.691,111.200 331.338 C 111.200 311.938,111.736 313.600,105.475 313.600 C 98.864 313.600,98.800 313.472,98.800 300.218 C 98.800 287.964,99.087 288.553,93.197 288.705 L 89.131 288.811 87.765 287.445 L 86.400 286.080 86.400 237.646 L 86.400 189.213 87.500 187.985 C 89.928 185.276,97.672 185.276,100.100 187.985 L 101.200 189.213 101.200 205.552 C 101.200 225.593,100.713 224.071,107.067 223.908 L 111.263 223.800 112.432 225.106 L 113.600 226.413 113.696 237.706 C 113.748 243.918,113.730 251.342,113.654 254.205 C 113.469 261.244,113.614 261.440,118.868 261.301 C 126.080 261.110,126.163 261.259,126.313 274.800 C 126.449 287.177,126.063 286.400,132.084 286.400 L 136.080 286.400 137.440 287.760 L 138.800 289.120 138.800 293.298 C 138.800 298.848,138.989 299.042,144.249 298.893 C 150.459 298.717,151.200 299.443,151.200 305.712 C 151.200 311.765,150.523 311.435,162.556 311.258 C 175.846 311.063,175.783 311.033,176.096 317.815 C 176.346 323.249,177.088 324.328,180.370 324.028 C 180.937 323.976,190.490 323.890,201.600 323.838 C 215.952 323.769,222.048 323.608,222.658 323.279 C 223.545 322.801,224.456 317.062,223.811 316.018 C 223.361 315.290,224.361 313.047,225.512 312.200 C 226.533 311.449,227.229 311.400,236.858 311.400 C 249.564 311.400,248.800 311.765,248.800 305.698 L 248.800 301.520 250.177 300.143 L 251.553 298.767 255.290 298.883 C 260.912 299.059,261.200 298.792,261.200 293.405 C 261.200 289.303,261.222 289.202,262.441 287.814 L 263.683 286.400 267.752 286.400 C 274.001 286.400,273.600 287.147,273.600 275.524 C 273.600 261.580,273.826 261.141,280.927 261.308 C 286.866 261.447,286.400 262.990,286.400 243.175 C 286.400 222.837,286.083 223.786,292.843 223.925 C 296.201 223.994,296.820 223.899,297.743 223.173 L 298.800 222.342 298.800 205.731 L 298.800 189.120 300.121 187.799 C 302.055 185.865,308.081 185.361,311.366 186.857 C 313.705 187.923,313.600 185.517,313.600 238.000 L 313.600 286.080 312.235 287.445 L 310.869 288.811 306.803 288.705 C 300.913 288.553,301.200 287.964,301.200 300.218 C 301.200 313.518,301.160 313.600,294.600 313.600 C 288.251 313.600,288.800 311.920,288.800 331.338 C 288.800 350.634,288.315 349.067,294.235 348.885 C 300.385 348.696,301.200 349.502,301.200 355.782 C 301.200 361.625,300.657 361.344,312.047 361.411 C 324.234 361.484,323.366 361.954,323.823 355.026 C 324.197 349.366,324.973 348.580,329.848 348.925 C 336.420 349.388,336.371 349.477,336.387 337.080 C 336.404 323.909,336.405 323.907,343.323 323.839 C 349.081 323.782,348.800 324.390,348.800 311.975 C 348.800 298.862,348.875 298.720,355.718 298.900 C 358.976 298.986,359.633 298.892,360.357 298.238 L 361.200 297.476 361.200 237.554 L 361.200 177.631 360.300 176.775 C 359.486 176.001,359.071 175.937,355.954 176.106 C 348.633 176.504,348.800 176.968,348.800 156.275 C 348.800 136.914,349.355 138.600,342.984 138.600 C 337.035 138.600,336.400 137.974,336.400 132.107 C 336.400 126.367,335.855 125.770,330.956 126.147 C 324.946 126.609,324.016 125.723,323.703 119.240 C 323.431 113.589,323.442 113.600,318.112 113.600 C 311.911 113.600,311.200 112.846,311.200 106.275 C 311.200 101.173,310.966 100.959,305.529 101.111 L 301.543 101.223 300.171 99.851 L 298.800 98.480 298.800 94.302 C 298.800 88.231,299.485 88.565,287.408 88.743 C 274.054 88.940,273.473 88.619,273.673 81.137 C 273.817 75.758,274.153 75.915,263.232 76.253 C 249.561 76.676,248.800 76.296,248.800 69.061 C 248.800 63.698,248.698 63.600,243.130 63.600 C 236.873 63.600,236.000 62.706,236.000 56.302 C 236.000 51.360,235.669 51.000,231.123 51.000 C 226.749 51.000,226.400 51.429,226.400 56.814 C 226.400 62.802,224.286 64.476,217.516 63.847 C 211.090 63.250,211.200 63.594,211.200 43.987 C 211.200 33.549,211.056 28.079,210.768 27.540 C 209.838 25.802,205.880 25.074,203.348 26.176 M241.600 38.449 C 238.747 39.587,237.419 45.819,239.571 47.971 C 241.085 49.485,246.219 49.559,247.690 48.088 C 248.781 46.997,248.917 40.837,247.875 39.685 C 246.677 38.358,243.431 37.719,241.600 38.449 M186.000 111.901 C 188.058 112.929,188.799 114.730,188.799 118.713 C 188.801 124.812,187.472 126.258,182.022 126.090 C 176.561 125.922,176.513 125.967,176.340 131.401 C 176.108 138.724,175.674 138.950,162.207 138.743 C 150.573 138.564,151.200 138.248,151.200 144.302 L 151.200 148.480 149.840 149.840 C 148.985 150.695,148.056 151.219,147.340 151.252 C 142.101 151.491,114.468 151.031,113.725 150.693 C 110.590 149.265,110.141 140.156,113.071 137.439 L 114.192 136.400 130.764 136.400 C 150.524 136.400,148.800 136.907,148.800 131.100 C 148.800 123.877,148.984 123.775,161.962 123.877 C 174.221 123.974,173.453 124.314,173.661 118.692 C 173.834 114.024,174.375 112.721,176.530 111.784 C 178.432 110.957,184.254 111.028,186.000 111.901 M223.186 111.723 C 225.562 112.541,226.235 114.053,226.147 118.381 C 226.076 121.860,226.137 122.173,227.058 123.094 L 228.045 124.081 236.922 123.879 C 250.730 123.564,251.196 123.799,251.199 131.077 C 251.201 136.877,249.598 136.400,269.070 136.400 C 289.158 136.400,288.800 136.266,288.800 143.800 C 288.800 151.271,289.201 151.125,268.200 151.267 C 247.906 151.405,248.806 151.736,248.794 144.120 C 248.785 138.251,249.206 138.439,236.583 138.676 C 224.354 138.907,224.183 138.810,223.737 131.468 C 223.407 126.022,223.287 125.908,218.073 126.081 C 212.471 126.266,211.264 124.913,211.224 118.400 C 211.200 114.459,211.955 112.729,214.108 111.793 C 215.696 111.103,221.261 111.059,223.186 111.723 M159.200 161.242 C 176.321 161.288,176.249 161.256,176.131 168.851 C 176.016 176.213,176.057 176.189,163.400 176.234 C 150.603 176.279,151.200 176.035,151.200 181.234 C 151.200 186.008,151.903 186.609,157.068 186.246 L 160.860 185.980 162.230 187.350 L 163.600 188.720 163.600 199.541 C 163.600 214.729,164.652 213.613,150.311 213.630 C 138.110 213.645,138.800 213.357,138.800 218.436 C 138.800 225.145,136.841 226.866,129.841 226.304 C 124.940 225.911,124.013 224.739,123.969 218.879 C 123.918 212.215,124.933 211.120,131.006 211.291 C 136.723 211.452,136.492 211.966,136.157 199.841 C 135.835 188.152,135.434 187.361,130.259 188.218 C 126.641 188.817,126.414 189.173,126.406 194.246 C 126.397 200.107,125.103 201.343,119.000 201.320 C 112.544 201.296,111.204 200.053,111.201 194.087 C 111.199 187.461,112.167 186.400,118.213 186.400 C 123.785 186.400,123.748 186.437,123.999 180.663 C 124.277 174.285,124.547 174.000,130.288 174.000 C 136.042 174.000,136.400 173.648,136.400 167.992 C 136.400 161.849,137.926 160.522,144.400 161.035 C 145.610 161.130,152.270 161.224,159.200 161.242 M261.469 161.861 C 263.180 162.671,263.318 163.096,263.577 168.333 C 263.852 173.899,263.993 174.064,268.400 173.992 C 273.240 173.914,273.502 173.954,274.678 174.964 C 275.759 175.893,275.807 176.098,276.000 180.503 C 276.262 186.504,276.164 186.400,281.560 186.400 C 287.881 186.400,288.800 187.340,288.800 193.800 C 288.800 199.546,288.068 200.564,283.459 201.225 C 276.236 202.262,273.600 200.399,273.600 194.259 C 273.600 188.721,272.850 188.031,267.322 188.490 C 264.235 188.746,264.000 189.165,264.000 194.413 C 264.000 196.756,263.886 201.087,263.747 204.037 C 263.408 211.233,263.555 211.444,268.785 211.298 C 275.060 211.123,276.193 212.272,276.080 218.695 C 275.966 225.179,274.770 226.400,268.538 226.400 C 262.859 226.400,261.215 224.687,261.206 218.762 C 261.197 213.261,261.772 213.542,250.747 213.639 C 238.604 213.745,239.345 213.825,237.760 212.240 L 236.400 210.880 236.400 194.494 C 236.400 174.443,236.893 176.000,230.540 176.000 C 224.193 176.000,223.767 175.429,223.973 167.200 C 224.121 161.290,223.650 161.455,241.200 161.168 C 257.081 160.909,259.644 160.997,261.469 161.861 M254.200 175.915 C 249.527 176.619,250.133 185.875,254.897 186.549 C 259.447 187.193,261.200 185.706,261.200 181.200 C 261.200 176.777,259.085 175.180,254.200 175.915 M186.069 236.948 C 189.704 238.715,189.960 247.920,186.441 250.286 C 183.538 252.238,175.759 251.351,174.468 248.921 C 173.326 246.773,173.750 239.492,175.106 237.975 C 176.934 235.929,182.836 235.376,186.069 236.948 M222.190 236.439 C 225.307 237.224,225.779 238.126,225.933 243.588 C 226.103 249.681,225.516 250.587,220.956 251.260 C 213.056 252.427,209.753 248.534,211.449 240.056 C 212.115 236.723,216.908 235.109,222.190 236.439 M246.846 261.383 C 250.088 261.822,251.200 263.715,251.200 268.794 C 251.200 275.073,250.088 276.250,244.302 276.088 C 238.891 275.936,238.800 276.023,238.800 281.315 C 238.800 287.758,237.614 288.867,230.918 288.688 C 226.477 288.569,226.356 288.707,226.223 294.075 C 226.066 300.353,225.093 301.280,218.656 301.280 C 212.415 301.280,211.200 300.039,211.200 293.669 C 211.200 290.491,211.070 289.590,210.550 289.158 C 209.637 288.401,191.994 288.307,190.100 289.049 L 188.800 289.559 188.800 293.554 C 188.800 299.602,187.861 300.779,182.574 301.358 C 176.012 302.076,174.262 300.707,174.000 294.651 C 173.739 288.619,173.779 288.660,168.219 288.626 C 162.184 288.589,161.492 287.892,161.202 281.562 C 160.949 276.011,160.888 275.949,155.807 276.039 C 149.698 276.146,148.624 274.917,148.861 268.089 C 149.060 262.365,150.335 261.200,156.403 261.200 C 162.403 261.200,163.600 262.393,163.600 268.374 C 163.600 273.868,163.794 274.060,169.180 273.910 C 175.253 273.741,176.384 274.890,176.394 281.238 C 176.402 286.248,176.726 286.606,181.229 286.568 C 185.546 286.532,185.999 286.103,186.004 282.038 C 186.011 277.238,186.313 276.107,187.912 274.887 L 189.312 273.820 198.956 273.766 C 213.345 273.686,213.700 273.851,213.936 280.736 C 214.129 286.370,214.326 286.606,218.829 286.568 C 223.298 286.531,223.600 286.197,223.600 281.298 C 223.600 274.760,224.486 273.857,230.932 273.823 C 236.393 273.794,236.400 273.787,236.400 268.297 C 236.400 263.876,236.663 263.107,238.512 262.122 C 239.766 261.454,243.194 260.817,244.400 261.028 C 244.730 261.085,245.831 261.245,246.846 261.383 " stroke="none" fill="#f3f3f3" fill-rule="evenodd"></path><path id="path1" d="M0.000 200.000 L 0.000 400.000 200.000 400.000 L 400.000 400.000 400.000 200.000 L 400.000 0.000 200.000 0.000 L 0.000 0.000 0.000 200.000 M211.468 23.975 C 213.979 25.115,213.929 24.767,214.241 42.994 C 214.560 61.650,214.427 60.869,217.378 61.422 C 221.913 62.273,223.200 60.891,223.200 55.169 C 223.200 48.865,223.670 48.400,230.038 48.400 C 236.035 48.400,236.000 48.433,236.000 42.779 L 236.000 38.483 237.378 37.273 C 238.987 35.860,241.782 35.352,245.852 35.732 C 250.702 36.185,251.596 37.432,251.599 43.740 C 251.601 50.871,250.488 52.122,244.504 51.712 C 239.682 51.382,239.200 51.784,239.200 56.147 C 239.200 60.766,239.474 60.990,244.977 60.863 C 251.020 60.723,251.331 61.039,251.600 67.598 C 251.865 74.041,250.932 73.571,262.923 73.301 C 276.300 73.001,276.800 73.278,276.800 80.998 C 276.800 86.504,276.201 86.262,288.800 85.850 C 300.750 85.459,301.755 86.015,301.675 92.974 C 301.611 98.526,301.738 98.647,307.458 98.474 L 311.630 98.348 312.781 99.580 C 314.120 101.013,314.473 102.660,314.314 106.734 C 314.152 110.901,314.757 111.368,319.828 110.988 C 325.705 110.547,326.796 111.690,326.799 118.291 C 326.800 123.563,326.933 123.680,332.782 123.515 L 336.859 123.400 338.029 124.706 C 339.171 125.980,339.200 126.120,339.200 130.344 C 339.200 136.122,339.830 136.647,345.800 135.844 C 348.158 135.527,350.287 136.395,351.089 138.000 C 351.463 138.749,351.593 143.118,351.607 155.400 C 351.629 175.153,351.086 173.400,357.185 173.400 C 362.225 173.400,363.179 173.904,363.951 176.972 C 364.853 180.555,364.522 296.850,363.603 298.993 C 362.601 301.332,361.552 301.751,357.462 301.450 C 351.565 301.016,351.613 300.916,351.605 313.720 C 351.598 326.512,351.283 327.077,344.446 326.560 C 338.972 326.147,339.200 325.649,339.200 338.020 C 339.200 351.405,338.975 351.871,332.687 351.496 C 327.067 351.161,326.815 351.400,326.806 357.069 C 326.796 364.128,326.049 364.482,311.600 364.290 C 298.503 364.115,298.400 364.057,298.400 356.882 C 298.400 351.526,298.216 351.355,292.640 351.523 C 285.522 351.737,285.513 351.712,285.608 331.697 C 285.689 314.543,285.743 313.921,287.304 312.142 L 288.506 310.774 292.833 310.887 C 298.769 311.042,298.371 311.876,298.387 299.247 C 298.404 286.087,298.823 285.234,304.909 285.989 C 311.471 286.802,310.834 292.102,310.763 237.277 L 310.703 190.448 309.800 189.600 C 308.454 188.335,304.999 188.099,303.320 189.157 L 302.040 189.964 301.920 206.882 C 301.771 227.934,302.274 226.567,294.669 226.588 C 288.669 226.605,289.200 224.887,289.200 244.292 C 289.200 264.524,289.029 265.051,282.797 264.033 C 276.899 263.070,276.800 263.255,276.800 275.278 C 276.800 289.007,276.656 289.277,269.409 289.102 C 264.329 288.980,264.415 288.902,264.404 293.600 C 264.387 300.612,263.440 301.678,257.373 301.512 C 251.726 301.357,251.600 301.481,251.600 307.208 C 251.600 314.799,251.945 314.692,230.131 313.881 C 227.299 313.776,226.800 314.579,226.800 319.243 C 226.800 327.138,228.772 326.576,200.613 326.713 C 171.882 326.852,173.200 327.202,173.200 319.431 C 173.200 314.171,172.838 313.715,168.855 313.969 C 167.395 314.062,162.942 314.152,158.960 314.169 C 148.884 314.212,148.400 313.878,148.400 306.882 C 148.400 301.547,148.200 301.357,142.735 301.514 C 136.704 301.686,135.393 300.311,135.644 294.074 C 135.851 288.945,135.424 288.598,129.455 289.047 C 123.575 289.488,123.205 288.655,123.202 274.962 C 123.200 263.340,123.060 263.079,117.328 264.012 C 110.911 265.056,110.803 264.736,110.801 244.589 C 110.800 224.628,111.249 226.172,105.554 226.564 C 98.951 227.019,97.857 225.786,98.011 218.054 C 98.062 215.494,98.080 208.132,98.052 201.694 L 98.000 189.988 96.700 189.196 C 94.926 188.114,92.469 188.164,90.759 189.316 L 89.400 190.232 89.400 237.593 L 89.400 284.955 90.644 285.681 C 91.745 286.325,92.234 286.359,94.927 285.985 C 101.172 285.116,101.614 286.014,101.638 299.604 L 101.655 309.585 102.705 310.411 C 103.661 311.163,104.087 311.212,107.464 310.965 L 111.172 310.692 112.537 312.057 L 113.902 313.422 114.078 330.211 C 114.308 352.261,114.471 351.738,107.436 351.525 C 101.782 351.355,101.600 351.520,101.600 356.836 C 101.600 364.181,101.294 364.350,88.000 364.340 C 73.740 364.330,73.200 364.053,73.200 356.750 L 73.200 352.361 71.922 351.824 C 71.047 351.456,69.672 351.353,67.565 351.497 C 60.981 351.949,60.800 351.591,60.800 338.105 C 60.800 325.573,61.080 326.192,55.581 326.582 C 48.489 327.085,48.384 326.886,48.340 312.844 L 48.309 302.786 47.302 301.994 C 46.400 301.285,45.896 301.228,42.448 301.448 C 37.898 301.739,36.835 301.218,36.047 298.315 C 35.284 295.506,35.603 176.984,36.378 175.470 C 37.349 173.571,38.695 173.150,42.896 173.430 C 48.700 173.816,48.163 175.563,48.400 155.533 C 48.647 134.639,48.230 135.800,55.431 135.939 C 60.701 136.040,60.687 136.055,60.865 130.108 C 61.054 123.821,61.510 123.351,67.260 123.515 C 73.121 123.682,73.200 123.608,73.200 117.951 L 73.200 113.520 74.611 112.109 L 76.022 110.698 79.934 110.976 C 85.373 111.361,85.841 110.989,85.699 106.382 C 85.487 99.476,86.486 98.315,92.510 98.476 C 98.292 98.630,98.433 98.498,98.369 92.968 C 98.288 85.993,99.301 85.431,111.200 85.850 C 124.205 86.308,123.195 86.742,123.213 80.686 C 123.235 73.297,123.697 73.057,137.519 73.258 C 149.197 73.428,148.400 73.821,148.400 67.904 C 148.400 61.555,149.272 60.734,155.833 60.905 C 160.781 61.034,160.800 61.015,160.801 55.651 C 160.804 49.035,161.702 48.081,167.517 48.520 C 169.650 48.682,170.940 48.585,171.873 48.195 L 173.200 47.641 173.200 43.401 C 173.200 38.646,173.720 37.060,175.519 36.323 C 177.016 35.710,188.666 35.456,191.943 35.964 C 197.403 36.811,198.400 35.882,198.400 29.948 C 198.400 25.711,198.708 24.985,200.932 23.975 C 203.272 22.912,209.128 22.912,211.468 23.975 M178.923 114.004 C 176.470 114.992,175.881 121.284,178.087 122.927 C 179.845 124.237,184.241 123.817,185.294 122.240 C 185.729 121.588,185.662 116.063,185.208 115.216 C 184.480 113.854,180.974 113.178,178.923 114.004 M216.209 114.226 C 214.535 115.099,214.413 115.415,214.406 118.900 C 214.399 122.510,214.914 123.324,217.466 123.732 C 222.120 124.476,224.407 121.141,222.955 115.727 C 222.461 113.886,218.536 113.013,216.209 114.226 M153.600 126.662 C 151.008 127.709,150.612 135.266,153.129 135.640 C 153.278 135.663,157.533 135.715,162.584 135.756 C 173.709 135.848,173.200 136.074,173.200 131.049 C 173.200 126.678,173.048 126.546,168.237 126.766 C 162.611 127.023,160.039 127.009,157.000 126.702 C 155.460 126.547,153.930 126.529,153.600 126.662 M228.600 126.665 C 226.688 127.149,225.876 133.476,227.516 135.116 C 228.122 135.722,243.517 136.139,246.871 135.640 C 247.944 135.481,248.400 134.167,248.400 131.233 C 248.400 127.015,247.904 126.545,243.656 126.741 C 237.982 127.004,235.012 127.001,232.200 126.731 C 230.660 126.583,229.040 126.553,228.600 126.665 M116.011 139.226 C 114.568 139.830,114.413 140.269,114.406 143.769 C 114.397 148.663,113.572 148.378,126.933 148.112 C 134.174 147.967,139.359 148.045,141.442 148.327 C 147.268 149.118,148.400 148.331,148.400 143.488 C 148.400 138.956,149.245 139.213,134.581 139.274 C 127.771 139.302,121.030 139.210,119.600 139.069 C 118.089 138.920,116.586 138.986,116.011 139.226 M278.800 139.205 C 277.370 139.368,270.985 139.441,264.611 139.369 C 250.851 139.212,251.600 138.975,251.600 143.488 C 251.600 148.255,252.721 149.088,258.099 148.321 C 259.855 148.070,265.607 147.987,272.678 148.109 C 286.217 148.344,285.459 148.561,285.619 144.400 C 285.781 140.163,285.741 140.018,284.213 139.380 C 282.726 138.759,282.727 138.759,278.800 139.205 M140.941 163.976 C 139.573 164.562,139.412 165.128,139.200 170.089 C 138.931 176.405,138.760 176.587,133.086 176.633 C 126.784 176.684,126.800 176.673,126.800 181.152 C 126.800 185.640,127.006 185.828,131.776 185.684 C 139.105 185.463,139.195 185.634,139.198 199.851 C 139.200 211.957,138.751 211.071,144.767 210.831 C 150.814 210.590,151.881 210.605,154.866 210.974 C 160.764 211.703,160.735 211.758,160.746 199.834 C 160.757 188.111,161.190 188.963,155.287 189.090 C 148.943 189.226,148.400 188.588,148.400 180.993 C 148.400 176.133,148.847 174.431,150.333 173.636 C 150.959 173.301,162.767 173.114,169.639 173.330 C 172.864 173.431,173.200 173.025,173.200 169.027 C 173.200 163.822,174.385 164.219,158.737 164.185 C 151.402 164.168,144.590 164.032,143.600 163.882 C 142.610 163.731,141.413 163.774,140.941 163.976 M227.826 164.611 C 227.094 164.974,226.987 165.445,226.885 168.725 L 226.770 172.428 228.237 173.041 C 229.389 173.523,230.278 173.580,232.380 173.309 C 239.203 172.428,238.977 171.786,239.112 192.422 L 239.225 209.561 240.153 210.292 C 241.321 211.211,259.106 211.308,260.199 210.401 C 260.704 209.982,260.800 208.348,260.800 200.213 C 260.800 188.346,261.094 188.944,255.351 189.107 C 249.351 189.277,248.653 188.675,248.207 182.949 C 247.572 174.789,248.741 173.138,255.091 173.231 C 260.508 173.310,260.800 173.084,260.800 168.814 C 260.800 163.901,262.256 164.302,244.192 164.247 C 234.268 164.217,228.353 164.348,227.826 164.611 M265.800 176.878 C 264.542 177.591,264.413 178.002,264.406 181.300 C 264.398 185.435,264.917 186.000,268.725 186.000 C 272.631 186.000,273.200 185.391,273.200 181.213 C 273.200 176.860,269.576 174.737,265.800 176.878 M116.400 189.062 C 114.164 189.964,113.351 196.127,115.242 197.838 C 116.589 199.057,121.399 198.935,122.435 197.656 C 123.579 196.243,123.545 190.836,122.385 189.786 C 121.554 189.034,117.643 188.561,116.400 189.062 M278.800 189.084 C 275.912 190.146,275.890 197.195,278.771 198.388 C 282.895 200.096,285.600 198.266,285.600 193.767 C 285.600 189.336,282.995 187.541,278.800 189.084 M128.494 214.262 C 126.941 215.027,126.721 215.728,126.880 219.394 C 127.069 223.764,131.503 225.709,134.613 222.788 C 135.609 221.852,136.067 217.283,135.351 215.418 C 134.735 213.812,130.765 213.143,128.494 214.262 M266.114 214.190 C 263.935 215.138,263.606 221.377,265.654 222.903 C 268.944 225.352,272.921 223.693,273.124 219.786 C 273.411 214.276,270.769 212.167,266.114 214.190 M179.000 238.936 C 176.957 239.858,176.700 240.463,176.860 243.981 C 177.069 248.581,180.478 250.427,184.316 248.018 L 185.631 247.193 185.516 243.738 C 185.364 239.196,182.728 237.253,179.000 238.936 M217.057 238.793 C 214.799 239.505,214.400 240.231,214.400 243.618 C 214.400 247.982,214.945 248.600,218.800 248.600 C 222.737 248.600,223.277 247.960,223.115 243.479 C 222.963 239.266,220.819 237.607,217.057 238.793 M154.000 263.884 C 151.802 264.692,150.958 270.958,152.800 272.800 C 154.065 274.065,158.486 273.950,159.818 272.618 C 160.896 271.541,161.248 267.185,160.388 265.578 C 159.552 264.016,156.117 263.105,154.000 263.884 M241.343 263.997 C 239.802 264.618,239.200 265.981,239.200 268.845 C 239.200 272.580,239.838 273.301,243.346 273.524 C 247.520 273.790,248.000 273.301,248.000 268.785 L 248.000 265.188 246.700 264.396 C 245.345 263.569,242.860 263.384,241.343 263.997 M166.800 276.488 C 162.883 277.502,163.355 285.468,167.378 286.222 C 171.398 286.976,173.200 285.365,173.200 281.016 C 173.200 276.919,171.039 275.390,166.800 276.488 M191.200 276.660 C 189.530 277.341,189.200 278.072,189.200 281.088 C 189.200 285.869,189.924 286.354,196.115 285.719 C 198.056 285.520,201.298 285.518,203.618 285.715 C 210.166 286.270,210.800 285.874,210.800 281.233 C 210.800 276.933,210.353 276.544,205.654 276.755 C 200.122 277.003,197.992 276.991,194.800 276.694 C 193.150 276.541,191.530 276.525,191.200 276.660 M227.670 277.326 C 226.396 278.682,226.385 283.982,227.654 285.165 C 229.302 286.700,233.304 286.696,234.842 285.158 C 235.977 284.023,235.947 278.347,234.800 277.200 C 233.560 275.960,228.875 276.042,227.670 277.326 M179.000 289.088 C 177.013 289.572,175.913 294.023,177.048 296.982 C 177.705 298.693,181.724 299.348,184.240 298.154 L 185.600 297.509 185.594 294.054 C 185.585 289.175,183.889 287.897,179.000 289.088 M216.400 289.062 C 214.005 290.028,213.338 296.307,215.454 297.971 C 217.354 299.465,222.246 298.820,222.952 296.982 C 223.589 295.320,223.213 290.536,222.385 289.786 C 221.554 289.034,217.643 288.561,216.400 289.062 " stroke="none" fill="#040404" fill-rule="evenodd"></path><path id="path2" d="M200.932 23.975 C 198.708 24.985,198.400 25.711,198.400 29.948 C 198.400 35.882,197.403 36.811,191.943 35.964 C 188.666 35.456,177.016 35.710,175.519 36.323 C 173.720 37.060,173.200 38.646,173.200 43.401 L 173.200 47.641 171.873 48.195 C 170.940 48.585,169.650 48.682,167.517 48.520 C 161.702 48.081,160.804 49.035,160.801 55.651 C 160.800 61.015,160.781 61.034,155.833 60.905 C 149.272 60.734,148.400 61.555,148.400 67.904 C 148.400 73.821,149.197 73.428,137.519 73.258 C 123.697 73.057,123.235 73.297,123.213 80.686 C 123.195 86.742,124.205 86.308,111.200 85.850 C 99.301 85.431,98.288 85.993,98.369 92.968 C 98.433 98.498,98.292 98.630,92.510 98.476 C 86.486 98.315,85.487 99.476,85.699 106.382 C 85.841 110.989,85.373 111.361,79.934 110.976 L 76.022 110.698 74.611 112.109 L 73.200 113.520 73.200 117.951 C 73.200 123.608,73.121 123.682,67.260 123.515 C 61.510 123.351,61.054 123.821,60.865 130.108 C 60.687 136.055,60.701 136.040,55.431 135.939 C 48.230 135.800,48.647 134.639,48.400 155.533 C 48.163 175.563,48.700 173.816,42.896 173.430 C 38.695 173.150,37.349 173.571,36.378 175.470 C 35.603 176.984,35.284 295.506,36.047 298.315 C 36.835 301.218,37.898 301.739,42.448 301.448 C 45.896 301.228,46.400 301.285,47.302 301.994 L 48.309 302.786 48.340 312.844 C 48.384 326.886,48.489 327.085,55.581 326.582 C 61.080 326.192,60.800 325.573,60.800 338.105 C 60.800 351.591,60.981 351.949,67.565 351.497 C 69.672 351.353,71.047 351.456,71.922 351.824 L 73.200 352.361 73.200 356.750 C 73.200 364.053,73.740 364.330,88.000 364.340 C 101.294 364.350,101.600 364.181,101.600 356.836 C 101.600 351.520,101.782 351.355,107.436 351.525 C 114.471 351.738,114.308 352.261,114.078 330.211 L 113.902 313.422 112.537 312.057 L 111.172 310.692 107.464 310.965 C 104.087 311.212,103.661 311.163,102.705 310.411 L 101.655 309.585 101.638 299.604 C 101.614 286.014,101.172 285.116,94.927 285.985 C 92.234 286.359,91.745 286.325,90.644 285.681 L 89.400 284.955 89.400 237.593 L 89.400 190.232 90.759 189.316 C 92.469 188.164,94.926 188.114,96.700 189.196 L 98.000 189.988 98.052 201.694 C 98.080 208.132,98.062 215.494,98.011 218.054 C 97.857 225.786,98.951 227.019,105.554 226.564 C 111.249 226.172,110.800 224.628,110.801 244.589 C 110.803 264.736,110.911 265.056,117.328 264.012 C 123.060 263.079,123.200 263.340,123.202 274.962 C 123.205 288.655,123.575 289.488,129.455 289.047 C 135.424 288.598,135.851 288.945,135.644 294.074 C 135.393 300.311,136.704 301.686,142.735 301.514 C 148.200 301.357,148.400 301.547,148.400 306.882 C 148.400 313.878,148.884 314.212,158.960 314.169 C 162.942 314.152,167.395 314.062,168.855 313.969 C 172.838 313.715,173.200 314.171,173.200 319.431 C 173.200 327.202,171.882 326.852,200.613 326.713 C 228.772 326.576,226.800 327.138,226.800 319.243 C 226.800 314.579,227.299 313.776,230.131 313.881 C 251.945 314.692,251.600 314.799,251.600 307.208 C 251.600 301.481,251.726 301.357,257.373 301.512 C 263.440 301.678,264.387 300.612,264.404 293.600 C 264.415 288.902,264.329 288.980,269.409 289.102 C 276.656 289.277,276.800 289.007,276.800 275.278 C 276.800 263.255,276.899 263.070,282.797 264.033 C 289.029 265.051,289.200 264.524,289.200 244.292 C 289.200 224.887,288.669 226.605,294.669 226.588 C 302.274 226.567,301.771 227.934,301.920 206.882 L 302.040 189.964 303.320 189.157 C 304.999 188.099,308.454 188.335,309.800 189.600 L 310.703 190.448 310.763 237.277 C 310.834 292.102,311.471 286.802,304.909 285.989 C 298.823 285.234,298.404 286.087,298.387 299.247 C 298.371 311.876,298.769 311.042,292.833 310.887 L 288.506 310.774 287.304 312.142 C 285.743 313.921,285.689 314.543,285.608 331.697 C 285.513 351.712,285.522 351.737,292.640 351.523 C 298.216 351.355,298.400 351.526,298.400 356.882 C 298.400 364.057,298.503 364.115,311.600 364.290 C 326.049 364.482,326.796 364.128,326.806 357.069 C 326.815 351.400,327.067 351.161,332.687 351.496 C 338.975 351.871,339.200 351.405,339.200 338.020 C 339.200 325.649,338.972 326.147,344.446 326.560 C 351.283 327.077,351.598 326.512,351.605 313.720 C 351.613 300.916,351.565 301.016,357.462 301.450 C 361.552 301.751,362.601 301.332,363.603 298.993 C 364.522 296.850,364.853 180.555,363.951 176.972 C 363.179 173.904,362.225 173.400,357.185 173.400 C 351.086 173.400,351.629 175.153,351.607 155.400 C 351.593 143.118,351.463 138.749,351.089 138.000 C 350.287 136.395,348.158 135.527,345.800 135.844 C 339.830 136.647,339.200 136.122,339.200 130.344 C 339.200 126.120,339.171 125.980,338.029 124.706 L 336.859 123.400 332.782 123.515 C 326.933 123.680,326.800 123.563,326.799 118.291 C 326.796 111.690,325.705 110.547,319.828 110.988 C 314.757 111.368,314.152 110.901,314.314 106.734 C 314.473 102.660,314.120 101.013,312.781 99.580 L 311.630 98.348 307.458 98.474 C 301.738 98.647,301.611 98.526,301.675 92.974 C 301.755 86.015,300.750 85.459,288.800 85.850 C 276.201 86.262,276.800 86.504,276.800 80.998 C 276.800 73.278,276.300 73.001,262.923 73.301 C 250.932 73.571,251.865 74.041,251.600 67.598 C 251.331 61.039,251.020 60.723,244.977 60.863 C 239.474 60.990,239.200 60.766,239.200 56.147 C 239.200 51.784,239.682 51.382,244.504 51.712 C 250.488 52.122,251.601 50.871,251.599 43.740 C 251.596 37.432,250.702 36.185,245.852 35.732 C 241.782 35.352,238.987 35.860,237.378 37.273 L 236.000 38.483 236.000 42.779 C 236.000 48.433,236.035 48.400,230.038 48.400 C 223.670 48.400,223.200 48.865,223.200 55.169 C 223.200 60.891,221.913 62.273,217.378 61.422 C 214.427 60.869,214.560 61.650,214.241 42.994 C 214.068 32.928,213.791 25.957,213.545 25.497 C 212.353 23.269,204.558 22.329,200.932 23.975 M210.674 25.180 C 212.665 26.394,212.676 26.479,212.946 43.528 C 213.256 63.047,213.120 62.653,219.434 62.334 C 223.851 62.111,224.400 61.448,224.400 56.337 C 224.400 52.567,224.446 52.361,225.566 51.106 L 226.732 49.800 231.581 49.600 C 237.383 49.361,237.186 49.546,237.194 44.319 C 237.203 38.586,238.088 37.381,242.635 36.912 C 248.083 36.349,250.400 38.306,250.400 43.470 C 250.400 49.549,249.479 50.479,243.391 50.552 C 237.951 50.616,238.000 50.567,238.000 56.020 C 238.000 61.726,238.279 62.000,244.085 62.000 C 249.761 62.000,250.400 62.642,250.400 68.347 C 250.400 72.010,250.483 72.452,251.367 73.478 L 252.333 74.600 262.171 74.492 C 275.253 74.348,274.871 74.160,275.229 80.918 C 275.568 87.332,274.932 86.993,286.714 87.027 C 298.583 87.061,297.843 86.982,299.231 88.369 C 300.369 89.508,300.400 89.646,300.400 93.587 C 300.400 99.216,300.780 99.600,306.351 99.600 C 312.133 99.600,312.800 100.201,312.800 105.410 C 312.800 111.482,313.427 112.206,318.568 112.068 C 324.331 111.914,325.210 112.719,325.478 118.400 C 325.766 124.485,326.125 124.834,331.947 124.690 C 337.061 124.563,337.751 125.236,337.914 130.509 C 338.110 136.879,338.477 137.253,344.422 137.145 C 347.875 137.083,348.116 137.134,349.131 138.148 L 350.200 139.217 350.400 155.998 L 350.600 172.779 351.512 173.689 C 352.345 174.522,352.786 174.600,356.646 174.600 C 360.777 174.600,360.889 174.624,361.834 175.722 L 362.800 176.845 362.800 237.453 L 362.800 298.062 361.631 299.231 C 360.492 300.369,360.355 300.400,356.412 300.400 C 352.546 300.400,352.317 300.448,351.381 301.458 L 350.400 302.517 350.400 312.652 L 350.400 322.787 349.229 324.094 L 348.059 325.400 344.267 325.294 C 340.690 325.194,340.406 325.247,339.238 326.230 L 338.000 327.271 338.000 337.288 C 338.000 350.496,338.014 350.468,331.498 350.364 C 325.979 350.276,325.306 351.109,325.230 358.119 C 325.196 361.167,324.122 362.758,322.042 362.842 C 301.416 363.680,299.600 363.156,299.600 356.360 C 299.600 350.779,299.218 350.400,293.587 350.400 C 289.646 350.400,289.508 350.369,288.369 349.231 L 287.200 348.062 287.200 331.200 L 287.200 314.338 288.425 313.114 C 289.638 311.901,289.680 311.891,292.914 312.113 C 299.505 312.565,299.600 312.390,299.600 299.800 C 299.600 287.094,299.535 287.233,305.520 287.213 C 309.381 287.200,311.267 286.646,311.752 285.382 C 312.256 284.068,312.032 190.908,311.522 189.789 C 310.185 186.855,302.616 186.828,300.706 189.750 C 300.544 189.998,300.409 197.633,300.406 206.718 L 300.400 223.236 299.418 224.218 C 298.361 225.276,298.268 225.293,293.267 225.357 C 290.136 225.397,289.875 225.468,288.967 226.522 L 288.000 227.645 288.000 243.642 C 288.000 263.776,288.325 262.868,281.091 262.953 C 275.349 263.021,275.601 262.509,275.598 274.144 C 275.595 287.349,275.176 288.285,269.464 287.855 C 264.670 287.495,262.624 288.689,262.830 291.727 C 263.331 299.106,262.411 300.400,256.663 300.400 C 250.856 300.400,250.400 300.867,250.400 306.811 C 250.400 310.312,250.352 310.509,249.231 311.631 C 247.834 313.028,248.831 312.919,236.945 312.964 C 225.079 313.008,225.804 312.654,225.503 318.551 C 225.117 326.111,226.972 325.603,199.920 325.561 C 172.923 325.519,174.769 326.016,174.414 318.697 C 174.103 312.284,174.743 312.563,161.261 312.954 C 150.199 313.274,149.600 312.932,149.600 306.293 C 149.600 300.788,149.204 300.400,143.587 300.400 C 137.845 300.400,137.200 299.766,137.200 294.120 C 137.200 288.379,136.132 287.401,130.391 287.882 C 125.540 288.289,124.240 286.531,124.422 279.810 C 124.482 277.604,124.502 273.232,124.465 270.094 L 124.400 264.388 123.100 263.590 C 122.044 262.941,121.155 262.801,118.358 262.841 C 111.768 262.935,112.002 263.645,111.991 243.520 C 111.980 223.862,112.463 225.407,106.323 225.387 C 99.173 225.364,99.600 226.564,99.600 206.496 L 99.600 190.139 98.700 189.320 C 95.832 186.708,90.001 186.890,88.581 189.636 C 88.082 190.601,88.001 197.446,88.009 237.880 C 88.019 293.337,87.240 286.886,93.964 287.196 C 100.560 287.501,100.153 286.699,100.400 299.846 C 100.648 312.998,100.211 312.204,107.091 312.012 C 110.273 311.923,110.421 311.959,111.591 313.129 L 112.800 314.338 112.800 331.200 L 112.800 348.062 111.631 349.231 C 110.495 350.366,110.346 350.400,106.489 350.400 C 100.860 350.400,100.400 350.845,100.400 356.292 C 100.400 362.885,100.338 362.918,88.000 363.010 C 74.821 363.109,74.400 362.881,74.400 355.642 C 74.400 350.816,73.933 350.400,68.520 350.400 C 62.024 350.400,62.000 350.351,62.000 337.048 L 62.000 327.271 60.762 326.230 C 59.594 325.247,59.310 325.194,55.733 325.294 L 51.941 325.400 50.771 324.094 L 49.600 322.787 49.600 312.826 C 49.600 300.011,49.801 300.400,43.189 300.400 C 39.688 300.400,39.491 300.352,38.369 299.231 L 37.200 298.062 37.200 237.857 C 37.200 200.706,37.346 177.268,37.581 176.650 C 38.197 175.029,39.436 174.618,43.734 174.609 C 47.544 174.600,47.699 174.565,48.634 173.478 L 49.600 172.355 49.600 155.947 L 49.600 139.538 50.769 138.369 C 51.412 137.726,52.267 137.194,52.669 137.188 C 62.175 137.029,62.000 137.135,62.000 131.516 C 62.000 125.302,62.682 124.619,68.887 124.607 C 74.064 124.598,74.526 124.199,74.441 119.815 C 74.317 113.377,75.591 111.773,80.536 112.145 C 86.155 112.567,87.200 111.611,87.200 106.045 C 87.200 100.201,87.819 99.600,93.838 99.600 C 99.084 99.600,99.600 99.077,99.600 93.760 C 99.600 86.991,99.582 87.000,112.934 87.000 C 124.930 87.000,124.146 87.394,124.524 81.184 C 124.943 74.310,125.213 74.173,137.740 74.523 C 149.498 74.852,149.600 74.798,149.600 68.249 C 149.600 62.661,150.058 62.209,155.761 62.174 C 161.644 62.138,161.882 61.903,162.066 55.973 C 162.248 50.057,162.425 49.879,168.368 49.602 C 174.168 49.333,174.400 49.132,174.400 44.398 C 174.400 37.096,174.635 36.963,187.299 37.111 C 199.897 37.257,199.600 37.404,199.600 31.012 C 199.600 26.925,199.928 26.169,202.200 25.014 C 204.016 24.092,209.052 24.191,210.674 25.180 M178.800 112.854 C 176.211 113.561,175.600 114.724,175.600 118.946 C 175.600 123.898,176.535 124.792,181.720 124.798 C 185.768 124.802,186.800 123.523,186.800 118.496 C 186.800 113.289,184.123 111.401,178.800 112.854 M216.800 112.691 C 216.250 112.791,215.215 113.315,214.500 113.857 L 213.200 114.841 213.200 118.598 C 213.200 123.342,213.870 124.390,217.101 124.700 C 219.932 124.972,222.708 124.492,223.629 123.571 C 224.735 122.465,224.779 115.267,223.685 114.277 C 222.014 112.764,219.536 112.193,216.800 112.691 M183.549 114.042 C 185.262 114.639,185.601 115.439,185.594 118.874 C 185.586 122.862,184.902 123.607,181.170 123.692 C 177.931 123.765,177.029 122.824,176.882 119.217 C 176.684 114.381,179.113 112.496,183.549 114.042 M221.400 114.227 C 222.937 114.956,223.187 115.654,223.195 119.238 C 223.202 122.876,221.324 124.349,217.466 123.732 C 214.914 123.324,214.399 122.510,214.406 118.900 C 214.416 114.096,217.202 112.235,221.400 114.227 M152.918 125.678 C 149.682 126.524,149.138 136.365,152.300 136.846 C 152.465 136.871,156.987 136.930,162.349 136.978 L 172.099 137.065 173.249 136.097 C 174.707 134.871,175.046 127.493,173.700 126.308 C 172.894 125.599,155.265 125.065,152.918 125.678 M234.621 125.500 C 225.182 125.647,225.600 125.397,225.600 130.888 C 225.600 137.579,224.916 137.388,246.900 136.828 C 249.025 136.774,249.600 135.637,249.600 131.489 C 249.600 126.342,248.381 125.040,243.800 125.293 C 242.920 125.341,238.790 125.435,234.621 125.500 M162.200 126.959 C 163.520 126.944,166.236 126.858,168.237 126.766 C 173.048 126.546,173.200 126.678,173.200 131.049 C 173.200 136.074,173.709 135.848,162.584 135.756 C 151.859 135.668,153.013 135.755,152.229 134.971 C 151.284 134.027,151.338 128.352,152.300 127.514 C 153.449 126.513,154.067 126.406,157.000 126.702 C 158.540 126.858,160.880 126.973,162.200 126.959 M237.800 126.941 C 239.340 126.909,241.975 126.819,243.656 126.741 C 247.904 126.545,248.400 127.015,248.400 131.233 C 248.400 133.527,248.235 134.508,247.771 134.971 C 246.987 135.755,248.141 135.668,237.416 135.756 C 226.350 135.847,226.800 136.037,226.800 131.276 C 226.800 126.733,227.355 126.266,232.200 126.731 C 233.740 126.879,236.260 126.974,237.800 126.941 M115.767 138.030 C 113.451 138.703,113.000 139.648,113.000 143.831 C 113.000 149.780,111.932 149.390,128.360 149.446 C 135.806 149.471,142.548 149.614,143.343 149.763 C 147.859 150.610,149.701 148.692,149.530 143.319 C 149.353 137.747,150.594 138.212,135.680 138.133 C 128.706 138.096,121.650 137.977,120.000 137.868 C 118.350 137.760,116.445 137.833,115.767 138.030 M266.720 137.991 C 249.136 138.235,250.651 137.756,250.466 143.121 C 250.277 148.558,252.200 150.577,256.822 149.796 C 257.665 149.654,264.170 149.531,271.277 149.522 C 287.553 149.503,287.200 149.638,287.200 143.428 C 287.200 139.593,285.004 137.074,282.200 137.693 C 281.980 137.741,275.014 137.875,266.720 137.991 M134.581 139.274 C 149.245 139.213,148.400 138.956,148.400 143.488 C 148.400 148.331,147.268 149.118,141.442 148.327 C 139.359 148.045,134.174 147.967,126.933 148.112 C 113.572 148.378,114.397 148.663,114.406 143.769 C 114.415 139.247,115.101 138.626,119.600 139.069 C 121.030 139.210,127.771 139.302,134.581 139.274 M284.213 139.380 C 285.741 140.018,285.781 140.163,285.619 144.400 C 285.459 148.561,286.217 148.344,272.678 148.109 C 265.607 147.987,259.855 148.070,258.099 148.321 C 252.721 149.088,251.600 148.255,251.600 143.488 C 251.600 138.975,250.851 139.212,264.611 139.369 C 270.985 139.441,277.370 139.368,278.800 139.205 C 282.727 138.759,282.726 138.759,284.213 139.380 M140.200 162.993 C 138.235 164.044,138.000 164.649,138.000 168.658 C 138.000 174.747,137.111 175.644,131.159 175.564 C 126.014 175.494,125.613 175.915,125.517 181.482 C 125.425 186.789,125.435 186.800,130.262 186.800 C 137.856 186.800,138.000 187.059,138.000 200.778 C 138.000 213.158,136.695 211.836,149.200 212.123 C 162.938 212.438,162.000 213.351,162.000 199.662 L 162.000 189.671 160.710 188.586 C 159.479 187.550,159.279 187.512,156.380 187.754 C 150.690 188.228,149.600 187.147,149.600 181.026 C 149.600 177.376,149.650 177.157,150.769 175.906 L 151.938 174.600 161.939 174.600 C 174.626 174.600,174.146 174.820,174.313 168.940 C 174.422 165.116,174.387 164.927,173.395 163.996 L 172.364 163.027 159.682 162.987 C 152.707 162.964,145.740 162.812,144.200 162.649 C 141.973 162.412,141.154 162.483,140.200 162.993 M227.777 163.215 C 225.931 163.905,225.510 164.955,225.531 168.810 C 225.560 174.021,226.532 174.853,232.180 174.501 L 235.428 174.298 236.714 175.763 L 238.000 177.228 238.000 193.440 C 238.000 210.558,238.024 210.785,239.912 211.745 C 241.486 212.545,260.579 212.164,261.428 211.315 C 261.934 210.809,262.400 193.495,262.007 189.800 C 261.838 188.214,261.258 188.000,257.131 188.000 C 250.619 188.000,249.600 187.069,249.600 181.117 C 249.600 175.459,250.366 174.628,255.668 174.534 C 260.865 174.443,260.674 174.469,261.371 173.771 C 262.019 173.123,262.312 166.078,261.752 164.618 C 261.128 162.994,260.060 162.891,243.977 162.909 C 235.494 162.918,228.204 163.056,227.777 163.215 M158.737 164.185 C 174.385 164.219,173.200 163.822,173.200 169.027 C 173.200 173.025,172.864 173.431,169.639 173.330 C 162.767 173.114,150.959 173.301,150.333 173.636 C 148.847 174.431,148.400 176.133,148.400 180.993 C 148.400 188.588,148.943 189.226,155.287 189.090 C 161.190 188.963,160.757 188.111,160.746 199.834 C 160.735 211.758,160.764 211.703,154.866 210.974 C 151.881 210.605,150.814 210.590,144.767 210.831 C 138.751 211.071,139.200 211.957,139.198 199.851 C 139.195 185.634,139.105 185.463,131.776 185.684 C 127.006 185.828,126.800 185.640,126.800 181.152 C 126.800 176.673,126.784 176.684,133.086 176.633 C 138.760 176.587,138.931 176.405,139.200 170.089 C 139.459 164.025,139.953 163.327,143.600 163.882 C 144.590 164.032,151.402 164.168,158.737 164.185 M260.267 165.023 C 260.601 165.481,260.800 166.894,260.800 168.814 C 260.800 173.084,260.508 173.310,255.091 173.231 C 248.741 173.138,247.572 174.789,248.207 182.949 C 248.653 188.675,249.351 189.277,255.351 189.107 C 261.094 188.944,260.800 188.346,260.800 200.213 C 260.800 208.348,260.704 209.982,260.199 210.401 C 259.106 211.308,241.321 211.211,240.153 210.292 L 239.225 209.561 239.112 192.422 C 238.977 171.786,239.203 172.428,232.380 173.309 C 230.278 173.580,229.389 173.523,228.237 173.041 L 226.770 172.428 226.885 168.725 C 226.987 165.445,227.094 164.974,227.826 164.611 C 229.488 163.784,259.641 164.168,260.267 165.023 M265.024 175.737 C 262.660 176.450,261.679 184.699,263.776 186.232 C 265.685 187.628,272.747 187.382,273.797 185.883 C 274.519 184.852,274.645 178.405,273.968 177.140 C 273.019 175.367,268.566 174.669,265.024 175.737 M272.146 177.229 C 273.623 178.391,273.746 183.860,272.325 185.184 C 271.066 186.357,266.367 186.367,265.200 185.200 C 264.373 184.373,264.003 178.804,264.706 177.766 C 265.772 176.191,270.402 175.857,272.146 177.229 M115.767 188.005 C 113.214 188.798,112.088 192.969,113.284 197.204 C 114.092 200.067,120.371 200.919,123.188 198.549 C 124.406 197.524,125.067 190.817,124.094 189.360 C 123.216 188.045,118.244 187.236,115.767 188.005 M278.200 188.025 C 275.877 188.594,275.600 189.190,275.600 193.607 C 275.600 198.530,276.892 200.000,281.218 200.000 C 285.064 200.000,286.667 198.604,287.049 194.918 C 287.658 189.043,284.401 186.506,278.200 188.025 M122.385 189.786 C 123.545 190.836,123.579 196.243,122.435 197.656 C 121.399 198.935,116.589 199.057,115.242 197.838 C 114.089 196.795,113.983 190.887,115.100 189.914 C 116.657 188.557,120.944 188.482,122.385 189.786 M284.546 189.629 C 285.972 190.750,286.156 196.573,284.804 197.796 C 282.961 199.465,277.915 198.880,277.166 196.911 C 276.497 195.152,276.715 190.598,277.500 189.914 C 279.104 188.517,282.935 188.362,284.546 189.629 M128.000 213.059 C 124.711 214.390,124.412 222.551,127.592 224.196 C 129.464 225.164,133.590 224.996,135.241 223.885 L 136.600 222.970 136.713 218.759 C 136.857 213.367,136.643 213.109,131.889 212.936 C 130.080 212.870,128.330 212.925,128.000 213.059 M264.699 213.265 C 263.313 213.772,263.138 214.503,263.283 219.185 L 263.400 222.971 264.759 223.885 C 267.203 225.530,272.877 224.898,273.968 222.860 C 275.027 220.881,274.503 214.958,273.169 213.836 C 271.824 212.703,267.107 212.386,264.699 213.265 M133.703 214.185 C 135.431 214.907,135.600 215.333,135.600 218.963 C 135.600 225.789,127.175 226.206,126.880 219.394 C 126.654 214.193,129.154 212.285,133.703 214.185 M271.636 214.285 C 273.900 215.622,273.876 221.579,271.600 223.122 C 267.220 226.091,263.084 221.700,264.594 215.683 C 265.062 213.815,269.387 212.956,271.636 214.285 M178.400 237.881 C 174.231 239.399,174.323 247.981,178.526 249.573 C 183.500 251.458,186.800 249.127,186.800 243.730 C 186.800 238.450,183.380 236.069,178.400 237.881 M215.400 238.220 C 211.699 240.116,212.209 248.089,216.126 249.573 C 221.071 251.447,224.400 249.124,224.400 243.800 C 224.400 239.894,224.115 239.280,221.726 238.050 C 220.469 237.402,216.803 237.501,215.400 238.220 M184.400 239.553 C 185.314 240.220,185.410 240.581,185.516 243.738 L 185.631 247.193 184.316 248.018 C 182.676 249.048,178.784 248.956,177.690 247.862 C 176.775 246.946,176.447 241.107,177.257 240.131 C 178.742 238.343,182.344 238.051,184.400 239.553 M221.991 239.531 C 223.391 240.574,223.704 246.089,222.450 247.637 C 221.293 249.066,216.317 249.079,215.165 247.656 C 214.059 246.290,214.054 240.837,215.157 239.839 C 216.878 238.282,220.118 238.136,221.991 239.531 M153.778 262.808 C 150.410 263.840,149.056 270.840,151.711 273.491 C 153.406 275.183,159.582 275.167,161.044 273.467 C 162.292 272.016,162.459 265.989,161.291 264.547 C 159.946 262.886,156.288 262.039,153.778 262.808 M241.000 263.031 C 238.411 263.962,238.000 264.755,238.000 268.822 C 238.000 273.964,238.588 274.575,243.545 274.590 C 248.541 274.604,249.263 273.938,249.518 269.079 C 249.805 263.597,246.318 261.120,241.000 263.031 M158.808 264.204 C 161.119 265.399,161.753 270.683,159.818 272.618 C 158.486 273.950,154.065 274.065,152.800 272.800 C 151.688 271.688,151.613 265.661,152.700 264.714 C 154.131 263.467,156.931 263.233,158.808 264.204 M246.700 264.396 L 248.000 265.188 248.000 268.785 C 248.000 273.301,247.520 273.790,243.346 273.524 C 239.838 273.301,239.200 272.580,239.200 268.845 C 239.200 264.127,242.778 262.005,246.700 264.396 M165.400 275.626 C 163.499 276.193,163.200 276.957,163.200 281.241 C 163.200 286.623,163.985 287.375,169.340 287.119 C 174.134 286.890,174.400 286.577,174.400 281.170 L 174.400 277.229 172.907 276.214 C 171.307 275.127,167.955 274.865,165.400 275.626 M190.293 275.718 C 188.235 276.479,188.000 277.061,188.006 281.362 C 188.015 287.341,187.381 287.063,200.875 287.008 C 212.714 286.960,212.075 287.293,211.913 281.268 C 211.750 275.232,212.203 275.462,200.391 275.423 C 195.319 275.407,190.775 275.539,190.293 275.718 M227.600 275.832 C 227.050 276.209,226.375 276.795,226.100 277.135 C 225.496 277.881,225.411 284.500,225.992 285.584 C 227.017 287.501,233.523 287.887,235.582 286.153 L 236.826 285.107 236.713 280.858 L 236.600 276.609 235.400 276.020 C 233.540 275.106,228.826 274.993,227.600 275.832 M172.300 277.321 C 173.568 278.474,173.621 283.356,172.383 284.931 C 170.982 286.711,166.853 286.853,165.178 285.178 C 164.243 284.243,164.039 278.623,164.900 277.502 C 166.083 275.960,170.680 275.848,172.300 277.321 M200.000 276.941 C 201.210 276.924,203.754 276.840,205.654 276.755 C 210.353 276.544,210.800 276.933,210.800 281.233 C 210.800 285.874,210.166 286.270,203.618 285.715 C 201.298 285.518,198.056 285.520,196.115 285.719 C 189.924 286.354,189.200 285.869,189.200 281.088 C 189.200 276.873,189.997 276.247,194.800 276.694 C 196.450 276.847,198.790 276.959,200.000 276.941 M234.800 277.200 C 235.947 278.347,235.977 284.023,234.842 285.158 C 233.304 286.696,229.302 286.700,227.654 285.165 C 226.385 283.982,226.396 278.682,227.670 277.326 C 228.875 276.042,233.560 275.960,234.800 277.200 M176.700 288.610 C 175.138 289.484,174.986 296.885,176.500 298.304 C 178.929 300.579,183.802 300.541,186.116 298.227 C 187.104 297.239,187.123 289.567,186.140 288.749 C 185.136 287.915,178.126 287.811,176.700 288.610 M214.800 288.260 C 213.501 288.763,213.200 289.749,213.200 293.503 C 213.200 297.904,213.440 298.489,215.596 299.352 C 218.351 300.454,221.668 300.027,223.464 298.340 C 224.612 297.262,224.881 290.412,223.833 288.976 C 223.259 288.190,216.386 287.645,214.800 288.260 M183.866 289.225 C 185.456 289.830,185.587 290.195,185.594 294.054 L 185.600 297.509 184.240 298.154 C 181.724 299.348,177.705 298.693,177.048 296.982 C 176.469 295.472,176.784 290.538,177.500 289.903 C 178.727 288.815,181.899 288.477,183.866 289.225 M222.385 289.786 C 223.213 290.536,223.589 295.320,222.952 296.982 C 222.246 298.820,217.354 299.465,215.454 297.971 C 213.338 296.307,214.005 290.028,216.400 289.062 C 217.643 288.561,221.554 289.034,222.385 289.786 " stroke="none" fill="#595959" fill-rule="evenodd"></path><path id="path3" d="M202.200 25.014 C 199.928 26.169,199.600 26.925,199.600 31.012 C 199.600 37.404,199.897 37.257,187.299 37.111 C 174.635 36.963,174.400 37.096,174.400 44.398 C 174.400 49.132,174.168 49.333,168.368 49.602 C 162.424 49.879,162.248 50.056,162.065 55.979 C 161.913 60.920,161.646 61.416,158.665 62.287 L 157.000 62.773 158.800 62.558 C 161.800 62.199,162.400 61.172,162.400 56.400 C 162.400 50.666,162.784 50.280,168.752 50.004 C 174.778 49.726,174.928 49.575,175.200 43.531 C 175.490 37.082,174.922 37.361,187.387 37.537 C 199.932 37.713,200.000 37.684,200.000 31.997 C 200.000 26.821,200.815 25.463,204.334 24.777 C 205.717 24.508,205.732 24.490,204.600 24.448 C 203.940 24.425,202.860 24.679,202.200 25.014 M208.112 24.785 C 212.394 25.615,212.309 25.244,212.551 44.085 C 212.797 63.156,212.675 62.800,218.980 62.800 C 223.793 62.800,224.989 61.647,224.855 57.135 C 224.712 52.318,225.423 50.877,228.387 49.976 L 229.400 49.669 228.260 49.634 C 227.468 49.611,226.705 50.015,225.760 50.960 L 224.400 52.320 224.400 56.290 C 224.400 61.454,223.860 62.111,219.434 62.334 C 213.120 62.653,213.256 63.047,212.946 43.528 C 212.806 34.658,212.524 27.075,212.320 26.679 C 211.733 25.537,209.529 24.399,208.000 24.447 L 206.600 24.492 208.112 24.785 M240.200 37.412 C 239.320 37.729,238.560 37.991,238.510 37.994 C 237.805 38.041,237.199 40.933,237.194 44.280 C 237.186 49.219,237.143 49.282,233.532 49.613 L 230.600 49.883 233.224 49.941 C 237.210 50.030,237.327 50.196,237.367 55.781 L 237.400 60.475 238.600 61.436 C 239.683 62.303,240.183 62.396,243.731 62.398 C 249.316 62.401,250.000 63.076,250.000 68.583 C 250.000 75.145,250.152 75.220,263.265 75.092 L 272.731 75.000 273.765 75.970 C 274.727 76.871,274.800 77.188,274.800 80.483 C 274.800 87.602,275.165 87.807,287.330 87.494 C 299.586 87.179,300.000 87.393,300.000 94.031 C 300.000 99.589,300.427 100.000,306.199 100.000 C 312.011 100.000,312.400 100.364,312.400 105.802 C 312.400 110.471,312.933 111.778,315.078 112.371 C 316.585 112.787,317.533 112.616,316.157 112.177 C 313.080 111.193,312.800 110.630,312.800 105.410 C 312.800 100.201,312.133 99.600,306.351 99.600 C 300.780 99.600,300.400 99.216,300.400 93.587 C 300.400 89.646,300.369 89.508,299.231 88.369 C 297.843 86.982,298.583 87.061,286.714 87.027 C 274.932 86.993,275.568 87.332,275.229 80.918 C 274.871 74.160,275.253 74.348,262.171 74.492 L 252.333 74.600 251.367 73.478 C 250.483 72.452,250.400 72.010,250.400 68.347 C 250.400 62.642,249.761 62.000,244.085 62.000 C 238.279 62.000,238.000 61.726,238.000 56.020 C 238.000 50.934,238.084 50.806,241.716 50.392 L 244.200 50.109 241.152 50.055 L 238.105 50.000 237.857 48.500 C 236.890 42.650,237.658 39.098,240.132 37.975 C 246.906 34.899,252.389 40.707,249.421 47.812 C 248.848 49.182,248.333 49.525,245.600 50.348 C 244.240 50.759,244.251 50.764,246.000 50.539 C 249.535 50.084,250.400 48.694,250.400 43.470 C 250.400 37.717,246.229 35.240,240.200 37.412 M151.743 62.397 C 150.050 63.080,149.600 64.322,149.600 68.315 C 149.600 74.789,149.480 74.852,137.740 74.523 C 125.213 74.173,124.943 74.310,124.524 81.184 C 124.146 87.394,124.930 87.000,112.934 87.000 C 99.582 87.000,99.600 86.991,99.600 93.760 C 99.600 99.077,99.084 99.600,93.838 99.600 C 87.793 99.600,87.200 100.187,87.200 106.175 C 87.200 110.635,86.758 111.415,83.783 112.214 C 82.693 112.506,82.160 112.757,82.600 112.771 C 86.384 112.888,87.595 111.233,87.613 105.920 C 87.631 100.596,88.277 100.003,94.074 99.994 C 96.123 99.991,97.990 99.856,98.223 99.694 C 99.600 98.738,100.000 97.366,100.000 93.600 C 100.000 87.276,100.203 87.179,112.836 87.499 C 124.846 87.803,125.200 87.600,125.200 80.410 C 125.200 77.195,125.276 76.868,126.234 75.970 L 127.268 75.000 136.734 75.092 C 149.893 75.219,150.000 75.168,150.000 68.733 C 150.000 63.637,150.638 62.726,154.464 62.363 L 157.000 62.122 154.800 62.086 C 153.590 62.067,152.214 62.206,151.743 62.397 M76.264 112.821 C 74.918 113.880,74.367 115.993,74.441 119.815 C 74.516 123.655,73.964 124.359,70.540 124.796 C 68.382 125.072,68.333 125.099,69.913 125.148 C 74.047 125.274,75.097 123.859,75.191 118.032 C 75.268 113.259,75.551 112.896,79.600 112.392 L 81.800 112.118 79.554 112.059 C 77.833 112.014,77.064 112.192,76.264 112.821 M178.318 112.615 C 175.515 113.507,175.200 114.196,175.200 119.440 C 175.200 124.857,175.066 124.709,180.278 125.050 L 184.288 125.313 185.734 123.956 C 188.457 121.402,188.180 114.541,185.294 113.049 C 183.498 112.120,180.467 111.932,178.318 112.615 M216.600 112.371 C 213.543 113.109,212.398 114.777,212.402 118.487 C 212.408 123.531,213.964 125.244,218.447 125.141 L 221.000 125.083 218.040 124.811 C 213.782 124.421,213.200 123.674,213.200 118.598 L 213.200 114.841 214.503 113.847 C 216.278 112.493,219.326 112.107,221.401 112.975 C 224.240 114.161,224.400 114.470,224.400 118.786 C 224.400 123.042,224.099 123.807,222.200 124.374 L 221.000 124.731 222.420 124.766 C 224.599 124.818,224.800 124.366,224.800 119.409 C 224.800 113.049,222.384 110.976,216.600 112.371 M320.000 112.370 C 324.490 112.793,324.594 112.935,324.993 119.200 C 325.296 123.952,325.949 124.844,329.264 125.032 L 331.400 125.153 329.600 124.858 C 325.943 124.259,325.741 123.942,325.478 118.400 C 325.222 112.974,324.262 111.933,319.640 112.063 L 317.400 112.126 320.000 112.370 M183.339 112.776 C 186.207 113.442,186.800 114.421,186.800 118.496 C 186.800 123.523,185.768 124.802,181.720 124.798 C 176.535 124.792,175.600 123.898,175.600 118.946 C 175.600 113.430,177.980 111.533,183.339 112.776 M64.335 124.853 C 62.674 125.462,62.000 127.384,62.000 131.516 C 62.000 137.135,62.175 137.029,52.669 137.188 C 52.267 137.194,51.412 137.726,50.769 138.369 L 49.600 139.538 49.600 155.947 L 49.600 172.355 48.634 173.478 C 47.699 174.565,47.544 174.600,43.734 174.609 C 39.436 174.618,38.197 175.029,37.581 176.650 C 37.346 177.268,37.200 200.706,37.200 237.857 L 37.200 298.062 38.369 299.231 C 39.491 300.352,39.688 300.400,43.189 300.400 C 49.801 300.400,49.600 300.011,49.600 312.826 L 49.600 322.787 50.713 324.033 C 51.624 325.053,52.187 325.304,53.813 325.416 C 54.906 325.492,55.350 325.464,54.800 325.355 C 49.996 324.398,50.000 324.408,50.000 312.189 L 50.000 302.338 48.831 301.169 C 47.695 300.034,47.547 300.000,43.685 300.000 C 39.919 300.000,39.653 299.944,38.651 298.942 L 37.592 297.883 37.696 237.353 L 37.800 176.822 38.715 175.911 C 39.530 175.099,39.965 175.011,42.715 175.100 C 50.390 175.348,49.997 176.372,49.999 156.131 L 50.000 140.061 51.036 138.831 C 52.063 137.610,52.103 137.600,56.005 137.600 C 61.588 137.600,62.399 136.924,62.402 132.264 C 62.406 126.617,63.107 125.365,66.600 124.772 L 68.200 124.500 66.800 124.482 C 66.030 124.471,64.921 124.639,64.335 124.853 M332.400 124.629 C 336.948 125.451,337.600 126.366,337.600 131.925 C 337.600 136.904,338.420 137.679,343.553 137.555 C 350.357 137.390,350.000 136.357,350.000 156.200 C 350.000 175.205,350.034 175.328,355.160 175.150 C 356.341 175.109,356.213 175.044,354.449 174.788 C 350.393 174.198,350.630 175.299,350.400 155.998 L 350.200 139.217 349.131 138.148 C 348.116 137.134,347.875 137.083,344.422 137.145 C 338.477 137.253,338.110 136.879,337.914 130.509 C 337.770 125.844,336.973 124.763,333.536 124.569 C 332.361 124.503,331.850 124.530,332.400 124.629 M152.977 125.266 C 150.352 125.946,149.913 126.980,150.065 132.131 C 150.139 134.664,150.348 136.883,150.529 137.063 C 151.385 137.917,171.987 137.529,173.315 136.634 C 175.112 135.423,175.889 128.275,174.494 125.782 C 174.137 125.145,155.198 124.691,152.977 125.266 M225.540 125.712 C 224.071 128.457,224.809 135.367,226.708 136.649 C 227.996 137.517,248.669 137.864,249.502 137.032 C 249.664 136.870,249.861 134.705,249.940 132.221 L 250.083 127.706 248.894 126.375 L 247.705 125.044 236.813 125.022 C 226.769 125.002,225.892 125.055,225.540 125.712 M173.700 126.308 C 175.046 127.493,174.707 134.871,173.249 136.097 L 172.099 137.065 162.349 136.978 C 156.987 136.930,152.465 136.871,152.300 136.846 C 149.138 136.365,149.682 126.524,152.918 125.678 C 155.265 125.065,172.894 125.599,173.700 126.308 M246.888 125.618 C 250.875 126.725,250.886 136.726,246.900 136.828 C 224.916 137.388,225.600 137.579,225.600 130.888 C 225.600 125.397,225.182 125.647,234.621 125.500 C 238.790 125.435,242.920 125.341,243.800 125.293 C 244.680 125.244,246.070 125.390,246.888 125.618 M114.768 137.870 C 111.487 139.250,111.420 148.227,114.681 149.537 C 116.025 150.076,115.732 150.067,130.000 150.031 C 136.270 150.015,142.215 150.109,143.210 150.240 C 145.613 150.557,148.161 149.830,149.179 148.536 C 150.167 147.279,150.412 139.488,149.500 138.303 C 148.852 137.461,116.693 137.060,114.768 137.870 M135.680 138.133 C 150.594 138.212,149.353 137.747,149.530 143.319 C 149.701 148.692,147.859 150.610,143.343 149.763 C 142.548 149.614,135.806 149.471,128.360 149.446 C 111.932 149.390,113.000 149.780,113.000 143.831 C 113.000 138.427,114.110 137.482,120.000 137.868 C 121.650 137.977,128.706 138.096,135.680 138.133 M250.414 138.374 C 248.544 141.868,250.518 149.931,253.269 150.035 C 259.065 150.255,284.087 149.872,285.107 149.548 C 289.281 148.223,288.287 137.528,284.000 137.645 C 283.110 137.669,283.140 137.713,284.275 138.041 C 286.438 138.667,287.200 140.070,287.200 143.428 C 287.200 149.638,287.553 149.503,271.277 149.522 C 264.170 149.531,257.665 149.654,256.822 149.796 C 252.200 150.577,250.277 148.558,250.466 143.121 C 250.651 137.756,249.136 138.235,266.720 137.991 L 281.800 137.781 266.314 137.691 C 251.364 137.603,250.814 137.627,250.414 138.374 M139.761 162.741 C 137.727 163.691,137.600 164.024,137.600 168.414 C 137.600 174.329,136.737 175.239,131.199 175.164 C 125.498 175.088,124.539 176.291,124.894 183.073 C 125.135 187.688,124.828 187.425,129.804 187.275 C 137.202 187.050,137.030 186.743,137.405 200.905 C 137.693 211.797,137.715 212.013,138.549 212.181 C 140.415 212.557,158.501 212.708,159.768 212.358 C 162.305 211.657,162.400 211.203,162.400 199.783 L 162.400 189.538 161.175 188.313 C 159.975 187.114,159.889 187.093,156.979 187.313 C 151.174 187.752,150.000 186.708,150.000 181.109 C 150.000 175.048,150.572 174.767,162.454 174.984 C 174.173 175.199,175.204 174.724,175.198 169.113 C 175.191 162.607,175.060 162.550,159.907 162.489 C 153.248 162.462,146.360 162.336,144.600 162.208 C 141.953 162.015,141.117 162.107,139.761 162.741 M256.342 162.192 C 256.236 162.297,249.809 162.410,242.058 162.443 C 224.507 162.517,224.982 162.339,224.847 168.913 C 224.746 173.869,226.397 175.289,231.829 174.917 C 235.024 174.698,235.040 174.702,236.318 175.979 L 237.600 177.262 237.600 193.754 C 237.600 211.221,237.555 210.790,239.518 212.092 C 240.460 212.716,261.398 212.680,262.072 212.053 C 262.434 211.717,262.892 188.705,262.554 187.825 C 262.319 187.212,261.839 187.169,258.016 187.417 C 251.290 187.853,250.000 186.839,250.000 181.117 C 250.000 177.807,250.065 177.540,251.170 176.306 L 252.341 175.000 257.270 175.000 L 262.200 175.000 262.311 169.780 C 262.419 164.701,262.396 164.536,261.450 163.647 C 260.320 162.585,256.917 161.616,256.342 162.192 M159.682 162.987 L 172.364 163.027 173.395 163.996 C 174.387 164.927,174.422 165.116,174.313 168.940 C 174.146 174.820,174.626 174.600,161.939 174.600 L 151.938 174.600 150.769 175.906 C 149.650 177.157,149.600 177.376,149.600 181.026 C 149.600 187.147,150.690 188.228,156.380 187.754 C 159.279 187.512,159.479 187.550,160.710 188.586 L 162.000 189.671 162.000 199.662 C 162.000 213.351,162.938 212.438,149.200 212.123 C 136.695 211.836,138.000 213.158,138.000 200.778 C 138.000 187.059,137.856 186.800,130.262 186.800 C 125.435 186.800,125.425 186.789,125.517 181.482 C 125.613 175.915,126.014 175.494,131.159 175.564 C 137.111 175.644,138.000 174.747,138.000 168.658 C 138.000 163.319,139.236 162.121,144.200 162.649 C 145.740 162.812,152.707 162.964,159.682 162.987 M260.452 163.431 C 263.020 164.748,262.690 174.300,260.071 174.434 C 259.702 174.453,257.720 174.498,255.668 174.534 C 250.366 174.628,249.600 175.459,249.600 181.117 C 249.600 187.069,250.619 188.000,257.131 188.000 C 261.258 188.000,261.838 188.214,262.007 189.800 C 262.400 193.495,261.934 210.809,261.428 211.315 C 260.579 212.164,241.486 212.545,239.912 211.745 C 238.024 210.785,238.000 210.558,238.000 193.440 L 238.000 177.228 236.714 175.763 L 235.428 174.298 232.180 174.501 C 226.532 174.853,225.560 174.021,225.531 168.810 C 225.510 164.955,225.931 163.905,227.777 163.215 C 229.312 162.642,259.300 162.840,260.452 163.431 M358.600 174.796 C 359.961 175.043,360.887 175.492,361.500 176.202 L 362.400 177.245 362.400 237.568 L 362.400 297.891 361.345 298.945 C 360.348 299.943,360.078 300.000,356.315 300.000 C 352.453 300.000,352.305 300.034,351.169 301.169 L 350.000 302.338 350.000 312.189 C 350.000 324.408,350.004 324.398,345.200 325.355 C 344.650 325.464,345.094 325.492,346.187 325.416 C 347.813 325.304,348.376 325.053,349.287 324.033 L 350.400 322.787 350.400 312.652 L 350.400 302.517 351.381 301.458 C 352.317 300.448,352.546 300.400,356.412 300.400 C 360.355 300.400,360.492 300.369,361.631 299.231 L 362.800 298.062 362.800 237.453 L 362.800 176.845 361.876 175.771 C 361.124 174.896,360.550 174.673,358.776 174.565 L 356.600 174.434 358.600 174.796 M264.600 175.163 L 262.600 175.400 262.600 181.199 L 262.600 186.999 265.200 187.329 C 266.630 187.511,269.268 187.541,271.062 187.397 C 274.927 187.086,274.786 187.313,274.795 181.370 C 274.803 175.202,273.086 174.157,264.600 175.163 M272.181 175.766 C 274.062 176.552,274.400 177.423,274.400 181.485 C 274.400 185.994,274.001 186.642,270.997 187.018 C 268.366 187.346,264.764 186.955,263.776 186.232 C 262.931 185.614,262.474 179.929,263.083 177.606 C 263.650 175.440,268.872 174.384,272.181 175.766 M89.726 187.980 C 87.503 189.335,87.600 187.062,87.600 237.804 L 87.600 285.262 88.769 286.431 C 89.832 287.494,90.168 287.595,92.469 287.543 L 95.000 287.486 92.250 287.207 C 87.542 286.729,88.019 292.278,88.009 237.880 C 87.999 183.806,87.610 188.479,92.200 187.469 C 92.843 187.327,92.804 187.284,92.000 187.248 C 91.450 187.223,90.426 187.553,89.726 187.980 M94.200 187.470 C 96.478 187.754,97.143 188.004,98.369 189.035 L 99.600 190.071 99.600 206.654 L 99.600 223.236 100.555 224.192 C 101.543 225.179,103.766 225.817,105.060 225.483 C 105.483 225.374,105.234 225.273,104.480 225.246 C 102.852 225.189,100.961 224.248,100.412 223.222 C 100.149 222.731,100.000 216.618,100.000 206.315 C 100.000 187.335,99.917 187.046,94.513 187.260 C 93.202 187.312,93.160 187.340,94.200 187.470 M118.100 187.476 C 118.485 187.576,119.115 187.576,119.500 187.476 C 119.885 187.375,119.570 187.293,118.800 187.293 C 118.030 187.293,117.715 187.375,118.100 187.476 M282.090 187.600 C 286.249 188.270,287.542 190.154,287.058 194.833 C 286.734 197.961,286.495 198.395,284.639 199.238 C 283.417 199.793,283.228 199.985,283.894 199.991 C 286.038 200.012,287.377 197.966,287.538 194.424 C 287.778 189.149,286.716 187.725,282.306 187.410 L 279.800 187.230 282.090 187.600 M302.551 187.754 C 299.939 188.934,300.000 188.486,300.000 206.435 C 300.000 225.083,300.109 224.495,296.570 225.025 C 295.576 225.174,294.849 225.383,294.955 225.488 C 295.421 225.954,298.614 225.022,299.464 224.172 L 300.400 223.236 300.406 206.718 C 300.409 197.633,300.544 189.998,300.706 189.750 C 302.616 186.828,310.185 186.855,311.522 189.789 C 312.483 191.898,312.181 285.019,311.210 285.990 C 310.337 286.863,309.478 287.123,306.800 287.325 C 305.312 287.437,305.427 287.472,307.469 287.530 C 309.599 287.590,310.108 287.458,311.169 286.564 L 312.400 285.529 312.400 237.771 L 312.400 190.013 311.237 188.711 C 309.866 187.176,305.015 186.642,302.551 187.754 M113.875 188.566 C 111.977 190.324,111.753 196.634,113.521 198.516 C 115.221 200.325,119.172 200.924,121.898 199.785 C 124.704 198.613,124.800 198.395,124.800 193.218 C 124.800 187.879,124.654 187.586,122.020 187.632 C 120.165 187.664,120.173 187.748,122.072 188.166 C 124.864 188.779,125.688 196.445,123.188 198.549 C 120.371 200.919,114.092 200.067,113.284 197.204 C 112.086 192.964,113.222 188.769,115.767 188.030 C 116.950 187.687,116.958 187.671,115.958 187.636 C 115.372 187.616,114.462 188.022,113.875 188.566 M275.900 188.032 C 274.843 188.648,274.856 197.564,275.915 198.523 C 277.107 199.602,279.477 200.403,281.287 200.340 C 282.550 200.296,282.685 200.242,281.800 200.134 C 276.278 199.464,275.600 198.754,275.600 193.641 C 275.600 189.182,275.878 188.584,278.200 188.049 L 279.800 187.680 278.200 187.652 C 277.320 187.637,276.285 187.808,275.900 188.032 M127.400 212.864 C 125.560 213.876,125.218 214.806,125.209 218.830 C 125.197 223.907,126.410 225.200,131.187 225.200 C 136.583 225.200,137.710 223.714,137.276 217.175 L 137.000 213.012 135.400 212.729 C 132.942 212.294,128.293 212.373,127.400 212.864 M264.200 212.733 L 263.000 213.006 262.884 217.403 C 262.712 223.898,263.622 225.200,268.334 225.200 C 273.761 225.200,274.800 224.167,274.800 218.768 C 274.800 212.872,271.593 211.046,264.200 212.733 M136.001 213.801 C 136.750 214.479,136.815 214.934,136.713 218.759 L 136.600 222.970 135.241 223.885 C 132.717 225.584,127.146 224.942,126.012 222.822 C 125.153 221.217,125.500 215.031,126.500 214.121 C 128.245 212.533,134.372 212.327,136.001 213.801 M273.169 213.836 C 274.503 214.958,275.027 220.881,273.968 222.860 C 272.877 224.898,267.203 225.530,264.759 223.885 L 263.400 222.971 263.283 219.185 C 263.096 213.169,263.343 212.888,268.869 212.832 C 271.612 212.803,272.069 212.910,273.169 213.836 M108.197 225.218 C 112.195 225.848,111.981 224.817,111.991 243.520 C 112.002 263.645,111.768 262.935,118.358 262.841 C 121.155 262.801,122.044 262.941,123.100 263.590 L 124.400 264.388 124.467 270.094 C 124.504 273.232,124.484 277.536,124.422 279.658 C 124.235 286.089,125.445 288.043,129.554 287.948 L 131.800 287.895 129.457 287.596 C 127.715 287.373,126.846 287.028,126.065 286.247 L 125.015 285.196 124.913 275.298 C 124.777 261.918,125.024 262.400,118.290 262.400 C 114.776 262.400,114.478 262.335,113.570 261.368 L 112.600 260.337 112.400 243.579 C 112.167 224.084,112.416 225.167,108.124 224.955 L 105.800 224.840 108.197 225.218 M289.743 225.197 C 287.606 226.059,287.600 226.103,287.594 243.389 C 287.588 261.299,287.649 260.883,284.798 262.284 C 282.804 263.263,283.247 263.525,285.386 262.632 C 287.985 261.546,288.000 261.435,288.000 243.642 L 288.000 227.645 288.917 226.578 C 289.636 225.743,290.352 225.446,292.217 225.208 L 294.600 224.905 292.600 224.878 C 291.500 224.863,290.214 225.006,289.743 225.197 M177.751 237.775 C 175.252 238.863,173.984 245.685,175.799 248.278 C 178.041 251.478,185.573 250.877,187.033 247.382 C 189.831 240.685,184.276 234.935,177.751 237.775 M215.157 237.841 C 213.194 238.656,212.809 239.594,212.697 243.838 C 212.569 248.631,214.203 250.382,218.800 250.382 C 223.300 250.382,224.800 248.715,224.800 243.715 C 224.800 237.891,220.841 235.479,215.157 237.841 M184.158 237.984 C 188.253 239.541,188.046 247.993,183.874 249.573 C 178.931 251.446,175.600 249.124,175.600 243.805 C 175.600 238.416,179.076 236.052,184.158 237.984 M221.726 238.050 C 225.853 240.175,225.682 247.979,221.474 249.573 C 219.051 250.491,215.847 249.940,214.100 248.304 C 213.041 247.311,212.743 240.756,213.700 239.494 C 214.993 237.789,219.607 236.959,221.726 238.050 M153.649 262.401 C 151.019 263.022,150.215 264.354,150.086 268.309 C 149.896 274.119,151.289 275.403,157.400 275.048 C 162.187 274.770,162.400 274.520,162.400 269.162 C 162.400 263.137,159.622 260.991,153.649 262.401 M241.200 262.468 C 238.182 263.320,237.600 264.410,237.600 269.213 C 237.600 274.499,237.727 274.658,242.249 275.036 C 248.362 275.545,249.996 274.161,249.999 268.469 C 250.001 263.221,246.643 260.930,241.200 262.468 M159.769 263.270 C 162.262 264.542,163.081 271.098,161.044 273.467 C 159.582 275.167,153.406 275.183,151.711 273.491 C 150.109 271.891,150.022 265.880,151.578 264.223 C 153.229 262.466,157.272 261.996,159.769 263.270 M245.800 262.788 C 248.766 263.473,249.727 265.099,249.518 269.079 C 249.263 273.938,248.541 274.604,243.545 274.590 C 238.588 274.575,238.000 273.964,238.000 268.822 C 238.000 263.518,240.519 261.570,245.800 262.788 M276.718 263.019 C 275.059 263.920,274.805 265.657,274.802 276.100 C 274.800 287.534,274.908 287.281,269.800 287.726 C 268.532 287.837,268.665 287.879,270.446 287.933 C 275.110 288.072,275.595 286.775,275.598 274.144 C 275.600 262.922,275.490 263.206,280.040 262.789 L 283.000 262.517 280.400 262.475 C 278.796 262.448,277.385 262.657,276.718 263.019 M169.200 275.163 C 170.997 275.327,172.202 275.686,173.100 276.327 L 174.400 277.254 174.400 281.183 C 174.400 286.576,174.132 286.890,169.340 287.119 C 163.985 287.375,163.200 286.623,163.200 281.241 C 163.200 276.957,163.499 276.193,165.400 275.626 L 166.600 275.269 165.474 275.234 C 162.991 275.159,162.800 275.551,162.800 280.744 C 162.800 287.290,164.227 288.363,171.693 287.431 C 174.857 287.035,174.858 287.035,175.064 282.351 C 175.328 276.338,174.029 274.732,169.006 274.863 L 166.600 274.926 169.200 275.163 M189.446 275.580 C 187.485 276.565,187.138 277.660,187.314 282.315 C 187.520 287.760,186.797 287.388,197.319 287.468 C 203.972 287.518,205.749 287.436,204.400 287.141 C 203.404 286.922,200.189 286.843,197.200 286.964 C 188.205 287.327,187.955 287.169,188.099 281.242 C 188.246 275.196,187.758 275.434,200.000 275.434 C 212.225 275.434,211.748 275.203,211.915 281.194 C 212.047 285.943,211.756 286.545,209.128 286.965 C 206.908 287.320,207.408 287.666,209.689 287.353 C 212.536 286.963,212.590 286.879,212.688 282.639 C 212.861 275.181,212.688 275.076,200.041 275.009 C 192.311 274.968,190.467 275.067,189.446 275.580 M227.279 275.469 C 224.795 276.694,223.666 284.637,225.689 286.660 C 226.618 287.590,233.466 287.897,235.045 287.080 C 237.023 286.057,237.179 285.623,237.292 280.834 C 237.410 275.805,237.107 275.167,234.624 275.232 L 233.400 275.263 234.600 275.685 C 236.725 276.433,236.800 276.614,236.800 281.013 C 236.800 286.314,236.060 287.200,231.629 287.200 C 226.309 287.200,225.600 286.506,225.600 281.303 C 225.600 276.543,226.433 275.551,230.760 275.163 L 233.400 274.926 231.000 274.872 C 229.492 274.838,228.109 275.060,227.279 275.469 M96.685 287.488 C 97.492 287.589,98.347 288.096,98.985 288.855 L 100.000 290.061 100.000 299.805 C 100.000 311.552,100.082 311.860,103.400 312.533 C 104.384 312.732,104.302 312.640,102.946 312.024 C 100.569 310.943,100.619 311.187,100.400 299.665 L 100.200 289.129 99.078 288.165 C 98.339 287.529,97.519 287.222,96.678 287.264 L 95.400 287.328 96.685 287.488 M134.000 287.818 C 136.840 288.725,137.200 289.429,137.200 294.075 C 137.200 299.772,137.834 300.400,143.587 300.400 C 149.204 300.400,149.600 300.788,149.600 306.293 C 149.600 312.932,150.199 313.274,161.261 312.954 C 174.743 312.563,174.103 312.284,174.414 318.697 C 174.769 326.016,172.923 325.519,199.920 325.561 C 226.972 325.603,225.117 326.111,225.503 318.551 C 225.804 312.654,225.079 313.008,236.945 312.964 C 248.831 312.919,247.834 313.028,249.231 311.631 C 250.352 310.509,250.400 310.312,250.400 306.811 C 250.400 300.867,250.856 300.400,256.663 300.400 C 262.452 300.400,263.274 299.224,262.829 291.577 C 262.717 289.650,263.782 288.447,266.217 287.753 L 268.200 287.186 266.400 287.400 C 263.235 287.775,262.400 289.147,262.400 293.971 C 262.400 299.418,261.782 300.000,256.005 300.000 C 250.635 300.000,250.000 300.653,250.000 306.177 C 250.000 311.722,248.406 313.165,242.852 312.646 C 237.106 312.110,228.205 312.274,226.916 312.940 C 225.277 313.788,225.097 314.325,224.830 319.159 C 224.479 325.510,226.990 324.928,199.991 324.920 C 173.000 324.912,175.513 325.495,175.184 319.159 C 174.811 311.972,173.578 311.521,157.375 312.647 C 151.319 313.068,150.000 311.903,150.000 306.133 C 150.000 300.693,149.558 300.268,143.610 299.996 C 137.818 299.732,137.622 299.533,137.609 293.906 C 137.598 289.288,136.750 287.852,133.800 287.457 L 132.200 287.243 134.000 287.818 M301.165 287.713 C 299.728 288.816,299.600 289.804,299.600 299.800 C 299.600 312.390,299.505 312.565,292.914 312.113 C 289.680 311.891,289.638 311.901,288.425 313.114 L 287.200 314.338 287.200 331.200 L 287.200 348.062 288.369 349.231 C 289.508 350.369,289.646 350.400,293.587 350.400 C 299.218 350.400,299.600 350.779,299.600 356.360 C 299.600 362.971,299.767 363.051,313.421 362.974 C 325.519 362.906,324.942 363.241,325.375 356.031 C 325.624 351.884,326.041 351.048,328.167 350.430 C 329.199 350.131,329.249 350.066,328.474 350.036 C 325.921 349.937,325.108 351.433,324.823 356.759 C 324.502 362.740,324.963 362.508,313.324 362.569 C 300.236 362.638,300.000 362.523,300.000 356.115 C 300.000 350.716,299.281 350.000,293.861 350.000 C 290.357 350.000,289.966 349.919,288.831 348.964 L 287.600 347.929 287.600 331.334 L 287.600 314.738 288.787 313.551 C 289.948 312.390,290.054 312.366,293.523 312.482 C 299.948 312.696,300.000 312.595,300.000 299.961 C 300.000 288.116,300.006 288.095,304.000 287.466 C 304.608 287.371,304.372 287.293,303.400 287.267 C 302.520 287.244,301.514 287.445,301.165 287.713 M175.620 288.176 C 174.788 289.179,175.034 297.185,175.934 298.400 C 176.854 299.642,178.844 300.366,181.200 300.317 C 182.376 300.293,182.584 300.230,181.800 300.134 C 176.210 299.456,175.600 298.791,175.600 293.375 L 175.600 289.221 176.851 288.573 C 178.427 287.758,185.099 287.885,186.139 288.749 C 186.675 289.194,186.800 290.076,186.800 293.420 C 186.800 297.931,186.598 298.401,184.217 299.438 C 183.167 299.896,183.123 299.971,183.894 299.984 C 184.385 299.993,185.341 299.505,186.017 298.900 L 187.247 297.800 187.231 293.075 C 187.223 290.476,187.112 288.181,186.984 287.975 C 186.580 287.321,176.177 287.505,175.620 288.176 M212.982 288.029 C 212.836 288.265,212.732 290.560,212.749 293.129 L 212.781 297.800 213.997 298.900 C 214.665 299.505,215.615 299.996,216.106 299.991 C 216.772 299.985,216.583 299.793,215.361 299.238 C 213.320 298.311,213.200 297.990,213.200 293.444 C 213.200 288.223,213.225 288.200,218.800 288.200 C 224.404 288.200,224.400 288.196,224.400 293.641 C 224.400 298.235,223.631 299.337,220.098 299.801 C 217.270 300.173,216.856 300.302,218.323 300.354 C 220.538 300.431,223.162 299.574,224.010 298.496 C 224.956 297.294,225.204 288.964,224.320 288.080 C 223.693 287.453,213.367 287.406,212.982 288.029 M107.560 312.389 C 110.113 312.623,110.650 312.811,111.460 313.752 L 112.400 314.845 112.400 331.387 L 112.400 347.929 111.169 348.964 C 110.040 349.914,109.634 350.000,106.258 350.000 C 102.641 350.000,101.252 350.414,100.306 351.777 C 100.144 352.010,100.009 353.857,100.006 355.881 C 99.995 362.633,100.067 362.594,87.347 362.570 C 74.957 362.547,75.491 362.802,75.200 356.759 C 74.899 350.493,74.421 350.000,68.649 350.000 C 65.205 350.000,64.738 349.909,63.722 349.035 L 62.600 348.071 62.495 338.135 C 62.360 325.282,62.152 324.719,57.600 324.858 L 55.800 324.913 57.877 325.165 C 59.272 325.335,60.291 325.734,60.977 326.379 L 62.000 327.339 62.000 337.083 C 62.000 350.346,62.026 350.400,68.520 350.400 C 73.933 350.400,74.400 350.816,74.400 355.642 C 74.400 362.881,74.821 363.109,88.000 363.010 C 100.338 362.918,100.400 362.885,100.400 356.292 C 100.400 350.845,100.860 350.400,106.489 350.400 C 110.346 350.400,110.495 350.366,111.631 349.231 L 112.800 348.062 112.800 331.200 L 112.800 314.338 111.631 313.169 C 110.537 312.075,110.273 312.004,107.531 312.059 L 104.600 312.117 107.560 312.389 M339.743 325.197 C 337.709 326.017,337.600 326.637,337.598 337.389 C 337.596 349.773,337.643 349.654,332.539 350.034 L 329.400 350.268 332.424 350.334 C 337.842 350.452,338.000 350.086,338.000 337.381 L 338.000 327.339 339.014 326.387 C 339.639 325.800,340.753 325.332,341.914 325.170 L 343.800 324.907 342.200 324.879 C 341.320 324.863,340.214 325.006,339.743 325.197 " stroke="none" fill="#7c7c7c" fill-rule="evenodd"></path><path id="path4" d="M204.334 24.784 C 200.821 25.453,200.000 26.819,200.000 31.997 C 200.000 37.684,199.932 37.713,187.387 37.537 C 174.922 37.361,175.490 37.082,175.200 43.531 C 174.928 49.575,174.778 49.726,168.752 50.004 C 162.784 50.280,162.400 50.666,162.400 56.400 C 162.400 62.161,161.959 62.610,156.418 62.484 C 150.658 62.353,150.000 62.988,150.000 68.680 C 150.000 75.176,149.911 75.219,136.734 75.092 L 127.268 75.000 126.234 75.970 C 125.276 76.868,125.200 77.195,125.200 80.410 C 125.200 87.600,124.846 87.803,112.836 87.499 C 100.203 87.179,100.000 87.276,100.000 93.600 C 100.000 97.366,99.600 98.738,98.223 99.694 C 97.990 99.856,96.123 99.991,94.074 99.994 C 88.277 100.003,87.631 100.596,87.613 105.920 C 87.592 111.858,86.411 113.032,80.972 112.524 C 76.188 112.078,75.264 112.989,75.172 118.242 C 75.064 124.368,73.884 125.551,68.427 125.003 C 63.510 124.509,62.407 125.839,62.402 132.264 C 62.399 136.924,61.588 137.600,56.005 137.600 C 52.103 137.600,52.063 137.610,51.036 138.831 L 50.000 140.061 49.999 156.131 C 49.997 176.372,50.390 175.348,42.715 175.100 C 39.965 175.011,39.530 175.099,38.715 175.911 L 37.800 176.822 37.696 237.353 L 37.592 297.883 38.651 298.942 C 39.653 299.944,39.919 300.000,43.685 300.000 C 47.547 300.000,47.695 300.034,48.831 301.169 L 50.000 302.338 50.000 312.189 C 50.000 324.984,50.297 325.573,56.433 324.969 C 59.112 324.705,61.071 325.255,61.875 326.497 C 62.054 326.774,62.290 331.741,62.400 337.535 L 62.600 348.071 63.722 349.035 C 64.738 349.909,65.205 350.000,68.649 350.000 C 74.421 350.000,74.899 350.493,75.200 356.759 C 75.491 362.802,74.957 362.547,87.347 362.570 C 100.067 362.594,99.995 362.633,100.006 355.881 C 100.009 353.857,100.144 352.010,100.306 351.777 C 101.252 350.414,102.641 350.000,106.258 350.000 C 109.634 350.000,110.040 349.914,111.169 348.964 L 112.400 347.929 112.400 331.387 L 112.400 314.845 111.435 313.722 C 110.507 312.643,110.318 312.597,106.462 312.529 C 99.842 312.410,100.000 312.722,100.000 299.780 L 100.000 290.013 98.874 288.752 C 97.749 287.493,97.746 287.492,93.844 287.547 C 90.030 287.600,89.912 287.574,88.770 286.431 L 87.600 285.262 87.600 237.720 C 87.600 185.429,87.422 189.133,90.004 187.798 C 91.465 187.043,95.595 187.020,97.361 187.758 C 100.066 188.888,100.000 188.423,100.000 206.315 C 100.000 226.079,99.625 225.000,106.487 225.000 C 109.998 225.000,110.463 225.088,111.287 225.911 L 112.200 226.821 112.400 243.579 L 112.600 260.337 113.570 261.368 C 114.478 262.335,114.776 262.400,118.290 262.400 C 125.024 262.400,124.777 261.918,124.913 275.298 L 125.015 285.196 126.116 286.298 C 127.163 287.346,127.418 287.403,131.298 287.464 C 136.958 287.552,137.596 288.204,137.609 293.906 C 137.622 299.533,137.818 299.732,143.610 299.996 C 149.558 300.268,150.000 300.693,150.000 306.133 C 150.000 311.903,151.319 313.068,157.375 312.647 C 173.578 311.521,174.811 311.972,175.184 319.159 C 175.513 325.495,173.000 324.912,199.991 324.920 C 226.990 324.928,224.479 325.510,224.830 319.159 C 225.097 314.325,225.277 313.788,226.916 312.940 C 228.205 312.274,237.106 312.110,242.852 312.646 C 248.406 313.165,250.000 311.722,250.000 306.177 C 250.000 300.653,250.635 300.000,256.005 300.000 C 261.782 300.000,262.400 299.418,262.400 293.971 C 262.400 290.162,262.444 289.963,263.568 288.706 L 264.736 287.400 268.383 287.502 C 274.937 287.686,274.799 287.936,274.802 275.867 C 274.805 262.686,275.015 262.257,281.349 262.472 C 287.742 262.688,287.600 263.125,287.600 243.196 L 287.600 227.245 288.565 226.122 C 289.510 225.025,289.625 225.000,293.812 224.986 C 297.987 224.972,298.117 224.944,299.047 223.864 L 300.000 222.755 300.000 206.432 C 300.000 190.671,300.028 190.073,300.806 189.083 C 302.703 186.671,309.213 186.446,311.247 188.722 L 312.400 190.013 312.400 237.771 L 312.400 285.529 311.173 286.562 C 310.041 287.514,309.657 287.592,306.273 287.568 C 299.869 287.522,300.000 287.264,300.000 299.961 C 300.000 312.595,299.948 312.696,293.523 312.482 C 290.054 312.366,289.948 312.390,288.787 313.551 L 287.600 314.738 287.600 331.334 L 287.600 347.929 288.831 348.964 C 289.966 349.919,290.357 350.000,293.861 350.000 C 299.281 350.000,300.000 350.716,300.000 356.115 C 300.000 362.523,300.236 362.638,313.324 362.569 C 324.963 362.508,324.502 362.740,324.823 356.759 C 325.162 350.435,325.586 350.000,331.413 350.000 C 335.222 350.000,335.296 349.982,336.440 348.758 L 337.600 347.515 337.600 337.380 L 337.600 327.245 338.566 326.122 C 339.499 325.038,339.664 324.999,343.466 324.976 C 350.149 324.934,350.000 325.225,350.000 312.189 L 350.000 302.338 351.169 301.169 C 352.305 300.034,352.453 300.000,356.315 300.000 C 360.078 300.000,360.348 299.943,361.345 298.945 L 362.400 297.891 362.400 237.568 L 362.400 177.245 361.434 176.122 C 360.501 175.038,360.336 174.999,356.534 174.976 C 349.594 174.933,350.000 176.098,350.000 156.200 C 350.000 136.357,350.357 137.390,343.553 137.555 C 338.420 137.679,337.600 136.904,337.600 131.925 C 337.600 125.742,336.959 125.061,331.109 125.024 C 325.795 124.991,325.334 124.553,324.993 119.200 C 324.577 112.676,324.229 112.303,318.682 112.446 C 313.033 112.591,312.400 111.922,312.400 105.802 C 312.400 100.364,312.011 100.000,306.199 100.000 C 300.427 100.000,300.000 99.589,300.000 94.031 C 300.000 87.393,299.586 87.179,287.330 87.494 C 275.165 87.807,274.800 87.602,274.800 80.483 C 274.800 77.188,274.727 76.871,273.765 75.970 L 272.731 75.000 263.265 75.092 C 250.152 75.220,250.000 75.145,250.000 68.583 C 250.000 63.076,249.316 62.401,243.731 62.398 C 240.183 62.396,239.683 62.303,238.600 61.436 L 237.400 60.475 237.367 55.781 C 237.327 50.207,237.211 50.042,233.224 49.919 C 225.858 49.693,224.665 50.721,224.855 57.135 C 224.989 61.647,223.793 62.800,218.980 62.800 C 212.675 62.800,212.797 63.156,212.551 44.085 C 212.431 34.726,212.178 27.760,211.936 27.128 C 211.245 25.322,207.527 24.175,204.334 24.784 M208.981 26.166 C 211.205 27.096,211.200 27.056,211.200 43.987 C 211.200 63.594,211.090 63.250,217.516 63.847 C 224.286 64.476,226.400 62.802,226.400 56.814 C 226.400 51.429,226.749 51.000,231.123 51.000 C 235.669 51.000,236.000 51.360,236.000 56.302 C 236.000 62.706,236.873 63.600,243.130 63.600 C 248.698 63.600,248.800 63.698,248.800 69.061 C 248.800 76.296,249.561 76.676,263.232 76.253 C 274.153 75.915,273.817 75.758,273.673 81.137 C 273.473 88.619,274.054 88.940,287.408 88.743 C 299.485 88.565,298.800 88.231,298.800 94.302 L 298.800 98.480 300.171 99.851 L 301.543 101.223 305.529 101.111 C 310.966 100.959,311.200 101.173,311.200 106.275 C 311.200 112.846,311.911 113.600,318.112 113.600 C 323.442 113.600,323.431 113.589,323.703 119.240 C 324.016 125.723,324.946 126.609,330.956 126.147 C 335.855 125.770,336.400 126.367,336.400 132.107 C 336.400 137.974,337.035 138.600,342.984 138.600 C 349.355 138.600,348.800 136.914,348.800 156.275 C 348.800 176.968,348.633 176.504,355.954 176.106 C 359.071 175.937,359.486 176.001,360.300 176.775 L 361.200 177.631 361.200 237.554 L 361.200 297.476 360.357 298.238 C 359.633 298.892,358.976 298.986,355.718 298.900 C 348.875 298.720,348.800 298.862,348.800 311.975 C 348.800 324.390,349.081 323.782,343.323 323.839 C 336.405 323.907,336.404 323.909,336.387 337.080 C 336.371 349.477,336.420 349.388,329.848 348.925 C 324.973 348.580,324.197 349.366,323.823 355.026 C 323.366 361.954,324.234 361.484,312.047 361.411 C 300.657 361.344,301.200 361.625,301.200 355.782 C 301.200 349.502,300.385 348.696,294.235 348.885 C 288.315 349.067,288.800 350.634,288.800 331.338 C 288.800 311.920,288.251 313.600,294.600 313.600 C 301.160 313.600,301.200 313.518,301.200 300.218 C 301.200 287.964,300.913 288.553,306.803 288.705 L 310.869 288.811 312.235 287.445 L 313.600 286.080 313.600 238.000 C 313.600 185.517,313.705 187.923,311.366 186.857 C 308.081 185.361,302.055 185.865,300.121 187.799 L 298.800 189.120 298.800 205.731 L 298.800 222.342 297.743 223.173 C 296.820 223.899,296.201 223.994,292.843 223.925 C 286.083 223.786,286.400 222.837,286.400 243.175 C 286.400 262.990,286.866 261.447,280.927 261.308 C 273.826 261.141,273.600 261.580,273.600 275.524 C 273.600 287.147,274.001 286.400,267.752 286.400 L 263.683 286.400 262.441 287.814 C 261.222 289.202,261.200 289.303,261.200 293.405 C 261.200 298.792,260.912 299.059,255.290 298.883 L 251.553 298.767 250.177 300.143 L 248.800 301.520 248.800 305.698 C 248.800 311.765,249.564 311.400,236.858 311.400 C 227.229 311.400,226.533 311.449,225.512 312.200 C 224.361 313.047,223.361 315.290,223.811 316.018 C 224.456 317.062,223.545 322.801,222.658 323.279 C 222.048 323.608,215.952 323.769,201.600 323.838 C 190.490 323.890,180.937 323.976,180.370 324.028 C 177.088 324.328,176.346 323.249,176.096 317.815 C 175.783 311.033,175.846 311.063,162.556 311.258 C 150.523 311.435,151.200 311.765,151.200 305.712 C 151.200 299.443,150.459 298.717,144.249 298.893 C 138.989 299.042,138.800 298.848,138.800 293.298 L 138.800 289.120 137.440 287.760 L 136.080 286.400 132.084 286.400 C 126.063 286.400,126.449 287.177,126.313 274.800 C 126.163 261.259,126.080 261.110,118.868 261.301 C 113.614 261.440,113.469 261.244,113.654 254.205 C 113.730 251.342,113.748 243.918,113.696 237.706 L 113.600 226.413 112.432 225.106 L 111.263 223.800 107.067 223.908 C 100.713 224.071,101.200 225.593,101.200 205.552 L 101.200 189.213 100.100 187.985 C 97.672 185.276,89.928 185.276,87.500 187.985 L 86.400 189.213 86.400 237.646 L 86.400 286.080 87.765 287.445 L 89.131 288.811 93.197 288.705 C 99.087 288.553,98.800 287.964,98.800 300.218 C 98.800 313.472,98.864 313.600,105.475 313.600 C 111.736 313.600,111.200 311.938,111.200 331.338 C 111.200 350.691,111.726 349.064,105.528 348.886 L 101.548 348.772 100.174 350.146 L 98.800 351.520 98.800 355.731 C 98.800 361.750,99.383 361.458,87.548 361.368 C 76.736 361.286,77.825 361.368,77.029 360.571 C 76.541 360.084,76.400 359.045,76.400 355.933 C 76.400 349.918,74.975 348.446,69.636 348.942 C 63.782 349.486,63.653 349.225,63.631 336.828 C 63.609 323.976,63.573 323.908,56.727 323.839 C 51.062 323.782,51.442 324.615,51.200 311.753 L 51.000 301.133 49.677 299.952 C 48.389 298.801,48.258 298.774,44.664 298.885 C 41.671 298.978,40.768 298.866,39.887 298.291 L 38.800 297.582 38.800 237.591 L 38.800 177.600 39.652 176.748 C 40.428 175.972,40.820 175.913,43.998 176.094 C 51.365 176.514,51.200 176.964,51.200 156.457 C 51.200 137.109,50.740 138.613,56.667 138.575 C 63.201 138.533,63.600 138.163,63.600 132.127 C 63.600 126.436,64.164 125.787,68.837 126.108 C 75.074 126.535,75.968 125.745,76.278 119.540 C 76.578 113.529,76.509 113.600,82.021 113.600 L 86.317 113.600 87.559 112.186 C 88.778 110.798,88.800 110.697,88.800 106.595 C 88.800 101.193,89.075 100.942,94.783 101.118 C 98.535 101.233,98.622 101.215,99.900 100.040 L 101.200 98.845 101.200 94.667 C 101.200 91.146,101.320 90.340,101.966 89.544 L 102.732 88.600 112.402 88.745 C 125.812 88.945,126.464 88.591,126.363 81.144 C 126.291 75.736,125.811 75.954,137.149 76.245 C 150.707 76.593,151.200 76.345,151.200 69.169 C 151.200 63.647,151.250 63.600,157.120 63.600 C 161.164 63.600,161.289 63.573,162.431 62.431 C 163.651 61.210,163.700 60.978,163.604 56.891 C 163.479 51.618,164.548 50.694,170.319 51.089 C 173.399 51.301,173.500 51.278,174.835 50.085 L 176.200 48.865 176.099 44.733 C 175.941 38.314,175.777 38.400,187.671 38.696 C 200.753 39.021,201.362 38.715,201.387 31.800 C 201.395 29.600,201.558 27.557,201.749 27.260 C 202.721 25.750,206.585 25.165,208.981 26.166 M240.132 37.975 C 237.724 39.068,237.476 39.785,237.678 45.055 C 237.886 50.511,237.343 49.960,242.622 50.066 C 248.989 50.193,250.000 49.289,250.000 43.467 C 250.000 38.044,245.498 35.539,240.132 37.975 M245.398 38.441 C 248.188 39.144,248.615 39.894,248.514 43.919 C 248.394 48.667,247.054 49.749,242.193 49.020 C 239.306 48.587,238.800 47.818,238.800 43.870 C 238.800 38.990,240.857 37.298,245.398 38.441 M176.530 111.784 C 174.375 112.721,173.834 114.024,173.661 118.692 C 173.453 124.314,174.221 123.974,161.962 123.877 C 148.984 123.775,148.800 123.877,148.800 131.100 C 148.800 136.907,150.524 136.400,130.764 136.400 L 114.192 136.400 113.071 137.439 C 110.141 140.156,110.590 149.265,113.725 150.693 C 114.468 151.031,142.101 151.491,147.340 151.252 C 148.056 151.219,148.985 150.695,149.840 149.840 L 151.200 148.480 151.200 144.302 C 151.200 138.248,150.573 138.564,162.207 138.743 C 175.674 138.950,176.108 138.724,176.340 131.401 C 176.513 125.967,176.561 125.922,182.022 126.090 C 187.472 126.258,188.801 124.812,188.799 118.713 C 188.798 112.787,187.180 111.190,181.200 111.216 C 179.221 111.225,177.269 111.462,176.530 111.784 M214.108 111.793 C 211.955 112.729,211.200 114.459,211.224 118.400 C 211.264 124.913,212.471 126.266,218.073 126.081 C 223.287 125.908,223.407 126.022,223.737 131.468 C 224.183 138.810,224.354 138.907,236.583 138.676 C 249.206 138.439,248.785 138.251,248.794 144.120 C 248.806 151.736,247.906 151.405,268.200 151.267 C 289.201 151.125,288.800 151.271,288.800 143.800 C 288.800 136.266,289.158 136.400,269.070 136.400 C 249.598 136.400,251.201 136.877,251.199 131.077 C 251.196 123.799,250.730 123.564,236.922 123.879 L 228.045 124.081 227.058 123.094 C 226.137 122.173,226.076 121.860,226.147 118.381 C 226.235 114.053,225.562 112.541,223.186 111.723 C 221.261 111.059,215.696 111.103,214.108 111.793 M185.294 113.049 C 188.180 114.541,188.457 121.402,185.734 123.956 L 184.288 125.313 180.278 125.050 C 178.072 124.906,176.027 124.588,175.733 124.345 C 174.921 123.671,174.990 115.277,175.818 114.096 C 177.170 112.165,182.455 111.581,185.294 113.049 M221.734 112.639 C 224.515 113.587,224.800 114.220,224.800 119.440 C 224.800 124.832,224.923 124.691,219.913 125.043 C 213.991 125.459,212.408 124.077,212.402 118.487 C 212.397 113.186,216.250 110.771,221.734 112.639 M174.494 125.782 C 175.889 128.275,175.112 135.423,173.315 136.634 C 171.987 137.529,151.385 137.917,150.529 137.063 C 150.348 136.883,150.139 134.664,150.065 132.131 C 149.851 124.877,149.828 124.889,164.191 125.088 C 172.195 125.199,174.245 125.337,174.494 125.782 M248.894 126.375 L 250.083 127.706 249.940 132.221 C 249.861 134.705,249.664 136.870,249.502 137.032 C 249.340 137.193,244.428 137.365,238.587 137.412 C 224.733 137.524,224.413 137.344,224.935 129.712 C 225.287 124.564,224.190 124.997,236.813 125.022 L 247.705 125.044 248.894 126.375 M149.500 138.303 C 150.412 139.488,150.167 147.279,149.179 148.536 C 148.161 149.830,145.613 150.557,143.210 150.240 C 142.215 150.109,136.270 150.015,130.000 150.031 C 115.732 150.067,116.025 150.076,114.681 149.537 C 111.420 148.227,111.487 139.250,114.768 137.870 C 116.693 137.060,148.852 137.461,149.500 138.303 M285.853 138.309 C 288.748 140.654,288.223 148.559,285.107 149.548 C 284.087 149.872,259.065 150.255,253.269 150.035 C 250.518 149.931,248.544 141.868,250.414 138.374 C 251.022 137.238,284.456 137.177,285.853 138.309 M140.600 161.152 C 136.903 161.826,136.400 162.645,136.400 167.992 C 136.400 173.648,136.042 174.000,130.288 174.000 C 124.547 174.000,124.277 174.285,123.999 180.663 C 123.748 186.437,123.785 186.400,118.213 186.400 C 112.167 186.400,111.199 187.461,111.201 194.087 C 111.204 200.053,112.544 201.296,119.000 201.320 C 125.103 201.343,126.397 200.107,126.406 194.246 C 126.414 189.173,126.641 188.817,130.259 188.218 C 135.434 187.361,135.835 188.152,136.157 199.841 C 136.492 211.966,136.723 211.452,131.006 211.291 C 124.933 211.120,123.918 212.215,123.969 218.879 C 124.013 224.739,124.940 225.911,129.841 226.304 C 136.841 226.866,138.800 225.145,138.800 218.436 C 138.800 213.357,138.110 213.645,150.311 213.630 C 164.652 213.613,163.600 214.729,163.600 199.541 L 163.600 188.720 162.230 187.350 L 160.860 185.980 157.068 186.246 C 151.903 186.609,151.200 186.008,151.200 181.234 C 151.200 176.035,150.603 176.279,163.400 176.234 C 176.057 176.189,176.016 176.213,176.131 168.851 C 176.249 161.256,176.321 161.288,159.200 161.242 C 152.270 161.224,145.610 161.130,144.400 161.035 C 143.190 160.939,141.480 160.992,140.600 161.152 M241.200 161.168 C 223.650 161.455,224.121 161.290,223.973 167.200 C 223.767 175.429,224.193 176.000,230.540 176.000 C 236.893 176.000,236.400 174.443,236.400 194.494 L 236.400 210.880 237.760 212.240 C 239.345 213.825,238.604 213.745,250.747 213.639 C 261.772 213.542,261.197 213.261,261.206 218.762 C 261.215 224.687,262.859 226.400,268.538 226.400 C 274.770 226.400,275.966 225.179,276.080 218.695 C 276.193 212.272,275.060 211.123,268.785 211.298 C 263.555 211.444,263.408 211.233,263.747 204.037 C 263.886 201.087,264.000 196.756,264.000 194.413 C 264.000 189.165,264.235 188.746,267.322 188.490 C 272.850 188.031,273.600 188.721,273.600 194.259 C 273.600 200.399,276.236 202.262,283.459 201.225 C 288.068 200.564,288.800 199.546,288.800 193.800 C 288.800 187.340,287.881 186.400,281.560 186.400 C 276.164 186.400,276.262 186.504,276.000 180.503 C 275.807 176.098,275.759 175.893,274.678 174.964 C 273.502 173.954,273.240 173.914,268.400 173.992 C 263.993 174.064,263.852 173.899,263.577 168.333 C 263.188 160.464,264.214 160.793,241.200 161.168 M159.907 162.489 C 175.060 162.550,175.191 162.607,175.198 169.113 C 175.204 174.724,174.173 175.199,162.454 174.984 C 150.572 174.767,150.000 175.048,150.000 181.109 C 150.000 186.708,151.174 187.752,156.979 187.313 C 159.889 187.093,159.975 187.114,161.175 188.313 L 162.400 189.538 162.400 199.783 C 162.400 211.203,162.305 211.657,159.768 212.358 C 158.501 212.708,140.415 212.557,138.549 212.181 C 137.715 212.013,137.693 211.797,137.405 200.905 C 137.030 186.743,137.202 187.050,129.804 187.275 C 124.828 187.425,125.135 187.688,124.894 183.073 C 124.539 176.291,125.498 175.088,131.199 175.164 C 136.737 175.239,137.600 174.329,137.600 168.414 C 137.600 162.814,138.762 161.783,144.600 162.208 C 146.360 162.336,153.248 162.462,159.907 162.489 M258.939 162.376 C 262.104 163.111,262.437 163.843,262.311 169.780 L 262.200 175.000 257.270 175.000 L 252.341 175.000 251.170 176.306 C 250.065 177.540,250.000 177.807,250.000 181.117 C 250.000 186.839,251.290 187.853,258.016 187.417 C 261.839 187.169,262.319 187.212,262.554 187.825 C 262.892 188.705,262.434 211.717,262.072 212.053 C 261.398 212.680,240.460 212.716,239.518 212.092 C 237.555 210.790,237.600 211.221,237.600 193.754 L 237.600 177.262 236.318 175.979 C 235.040 174.702,235.024 174.698,231.829 174.917 C 226.397 175.289,224.746 173.869,224.847 168.913 C 224.982 162.339,224.507 162.517,242.058 162.443 C 249.809 162.410,256.236 162.297,256.342 162.192 C 256.609 161.924,257.161 161.964,258.939 162.376 M271.874 175.227 C 274.599 176.259,275.855 181.427,274.556 186.267 C 274.271 187.330,269.484 187.873,265.200 187.329 L 262.600 186.999 262.600 181.199 L 262.600 175.400 264.600 175.163 C 268.011 174.758,270.700 174.782,271.874 175.227 M260.490 177.211 C 261.498 178.456,261.505 183.935,260.500 185.175 C 258.865 187.193,253.889 187.134,252.158 185.077 C 250.673 183.313,250.831 177.986,252.404 176.792 C 254.226 175.409,259.241 175.669,260.490 177.211 M124.300 188.102 C 125.167 188.788,124.983 197.710,124.085 198.523 C 121.400 200.953,115.804 200.947,113.516 198.510 C 111.637 196.510,112.083 189.624,114.181 188.249 C 115.736 187.231,123.065 187.124,124.300 188.102 M285.765 188.214 C 288.161 189.784,288.399 196.773,286.125 198.804 C 283.822 200.863,278.892 200.846,276.254 198.771 C 275.045 197.820,274.577 188.841,275.700 188.131 C 277.307 187.113,284.172 187.170,285.765 188.214 M135.400 212.729 L 137.000 213.012 137.276 217.175 C 137.710 223.714,136.583 225.200,131.187 225.200 C 126.410 225.200,125.197 223.907,125.209 218.830 C 125.223 212.770,127.595 211.349,135.400 212.729 M273.835 213.722 C 275.319 215.449,275.292 222.199,273.794 223.697 C 271.335 226.155,263.674 225.445,262.990 222.695 C 262.868 222.203,262.820 219.821,262.884 217.403 L 263.000 213.006 264.200 212.733 C 267.453 211.991,272.821 212.542,273.835 213.722 M177.606 236.390 C 174.429 237.182,173.560 239.635,173.986 246.600 C 174.204 250.150,175.854 251.196,181.241 251.199 C 187.334 251.201,188.732 249.766,188.777 243.460 C 188.822 237.276,184.649 234.635,177.606 236.390 M214.958 236.432 C 212.145 237.249,211.200 239.158,211.200 244.024 C 211.200 250.158,214.058 252.279,220.956 251.260 C 225.516 250.587,226.103 249.681,225.933 243.588 C 225.741 236.748,222.085 234.365,214.958 236.432 M184.553 237.755 C 190.153 240.094,188.384 249.647,182.234 250.281 C 177.104 250.811,175.200 249.057,175.200 243.800 C 175.200 237.970,179.075 235.466,184.553 237.755 M222.161 237.758 C 224.621 238.786,225.967 245.071,224.368 248.060 C 222.834 250.925,215.529 251.018,213.200 248.201 C 212.476 247.326,212.516 240.730,213.253 239.320 C 214.232 237.449,219.295 236.561,222.161 237.758 M241.800 261.179 C 237.257 261.762,236.400 262.892,236.400 268.297 C 236.400 273.787,236.393 273.794,230.932 273.823 C 224.486 273.857,223.600 274.760,223.600 281.298 C 223.600 286.197,223.298 286.531,218.829 286.568 C 214.326 286.606,214.129 286.370,213.936 280.736 C 213.700 273.851,213.345 273.686,198.956 273.766 L 189.312 273.820 187.912 274.887 C 186.313 276.107,186.011 277.238,186.004 282.038 C 185.999 286.103,185.546 286.532,181.229 286.568 C 176.726 286.606,176.402 286.248,176.394 281.238 C 176.384 274.890,175.253 273.741,169.180 273.910 C 163.794 274.060,163.600 273.868,163.600 268.374 C 163.600 262.393,162.403 261.200,156.403 261.200 C 150.335 261.200,149.060 262.365,148.861 268.089 C 148.624 274.917,149.698 276.146,155.807 276.039 C 160.888 275.949,160.949 276.011,161.202 281.562 C 161.492 287.892,162.184 288.589,168.219 288.626 C 173.779 288.660,173.739 288.619,174.000 294.651 C 174.262 300.707,176.012 302.076,182.574 301.358 C 187.861 300.779,188.800 299.602,188.800 293.554 L 188.800 289.559 190.100 289.049 C 191.994 288.307,209.637 288.401,210.550 289.158 C 211.070 289.590,211.200 290.491,211.200 293.669 C 211.200 300.039,212.415 301.280,218.656 301.280 C 225.093 301.280,226.066 300.353,226.223 294.075 C 226.356 288.707,226.477 288.569,230.918 288.688 C 237.614 288.867,238.800 287.758,238.800 281.315 C 238.800 276.023,238.891 275.936,244.302 276.088 C 250.088 276.250,251.200 275.073,251.200 268.794 C 251.200 263.715,250.088 261.822,246.846 261.383 C 245.831 261.245,244.730 261.085,244.400 261.028 C 244.070 260.970,242.900 261.038,241.800 261.179 M158.389 262.380 C 161.564 262.992,162.400 264.406,162.400 269.162 C 162.400 274.520,162.187 274.770,157.400 275.048 C 151.289 275.403,149.896 274.119,150.086 268.309 C 150.261 262.966,152.636 261.270,158.389 262.380 M246.168 262.440 C 249.135 263.263,250.000 264.626,249.999 268.469 C 249.996 274.161,248.362 275.545,242.249 275.036 C 237.727 274.658,237.600 274.499,237.600 269.213 C 237.600 263.100,240.445 260.851,246.168 262.440 M172.806 275.543 C 174.970 276.696,175.272 277.607,175.064 282.351 C 174.858 287.035,174.857 287.035,171.693 287.431 C 168.067 287.884,164.948 287.478,163.805 286.405 C 162.641 285.311,162.219 276.407,163.300 275.738 C 164.983 274.695,170.985 274.572,172.806 275.543 M210.657 275.717 C 212.352 276.605,212.793 278.109,212.688 282.639 C 212.568 287.810,213.288 287.569,198.320 287.467 C 186.662 287.388,187.522 287.790,187.314 282.315 C 187.040 275.069,187.262 274.941,200.041 275.009 C 207.886 275.051,209.603 275.165,210.657 275.717 M236.367 275.583 C 238.274 276.603,237.674 285.312,235.600 286.729 C 233.915 287.879,226.864 287.835,225.695 286.667 C 224.768 285.739,224.501 278.939,225.329 277.338 C 226.548 274.980,233.250 273.914,236.367 275.583 M186.984 287.975 C 187.112 288.181,187.223 290.476,187.231 293.075 L 187.247 297.800 186.066 298.857 C 183.797 300.886,178.383 300.845,176.321 298.782 C 174.974 297.435,174.504 289.532,175.685 288.100 C 176.182 287.498,186.618 287.382,186.984 287.975 M224.320 288.080 C 225.209 288.969,224.955 297.295,224.003 298.505 C 222.267 300.712,216.231 300.923,213.948 298.857 C 212.790 297.808,212.052 289.534,212.982 288.029 C 213.367 287.406,223.693 287.453,224.320 288.080 " stroke="none" fill="#848484" fill-rule="evenodd"></path></g></svg>