<svg xmlns="http://www.w3.org/2000/svg" id="Layer_1" data-name="Layer 1" version="1.1" viewBox="0 0 16.63 17.5"><defs id="defs1"><clipPath id="clipPath8" clipPathUnits="userSpaceOnUse"><path id="path8" fill="#f0f" stroke="none" stroke-linecap="round" stroke-linejoin="round" d="M17.71 9.3a8.72 8.72 0 0 1-2.54 1.96v0a6.44 6.44 0 0 1-6.73-.6 6.44 6.44 0 0 0-7.69 0v12h17.03z" class="cls-1"/></clipPath><clipPath id="clipPath9" clipPathUnits="userSpaceOnUse"><path id="path9" fill="#f0f" stroke="none" stroke-linecap="round" stroke-linejoin="round" d="M17.71 7.57a8.72 8.72 0 0 1-2.54 1.95v0a6.44 6.44 0 0 1-6.73-.59 6.44 6.44 0 0 0-7.69 0v12h17.03z" class="cls-1"/></clipPath><clipPath id="clipPath10" clipPathUnits="userSpaceOnUse"><path id="path10" fill="#f0f" stroke="none" stroke-linecap="round" stroke-linejoin="round" d="M17.71 5.84a8.72 8.72 0 0 1-2.54 1.95v0a6.44 6.44 0 0 1-6.73-.59 6.44 6.44 0 0 0-7.69 0v12h17.03z" class="cls-1"/></clipPath><clipPath id="clipPath11" clipPathUnits="userSpaceOnUse"><path id="path11" fill="#f0f" stroke="none" stroke-linecap="round" stroke-linejoin="round" d="M17.71 4.1a8.72 8.72 0 0 1-2.54 1.96v0a6.44 6.44 0 0 1-6.73-.6 6.44 6.44 0 0 0-7.69 0v12h17.03z" class="cls-1"/></clipPath><clipPath id="clipPath12" clipPathUnits="userSpaceOnUse"><path id="path12" fill="#f0f" stroke="none" stroke-linecap="round" stroke-linejoin="round" d="M17.71 2.37a8.72 8.72 0 0 1-2.54 1.95v0a6.44 6.44 0 0 1-6.73-.59 6.44 6.44 0 0 0-7.69 0v12h17.03z" class="cls-1"/></clipPath></defs><path id="path1-2-8-2-3-9" fill="#ff6680" fill-opacity="1" stroke="#f35" stroke-linecap="round" stroke-linejoin="round" stroke-opacity="1" d="M.75 2a6.44 6.44 0 0 1 7.69 0v0a6.44 6.44 0 0 0 7.69 0v10.4a6.44 6.44 0 0 1-7.69 0v0a6.44 6.44 0 0 0-7.69 0" class="cls-1"/><path id="path1-2-8-2-3" fill="#ff8c1a" fill-opacity="1" stroke="#db6e00" stroke-linecap="round" stroke-linejoin="round" stroke-opacity="1" d="M.75 2a6.44 6.44 0 0 1 7.69 0v0a6.44 6.44 0 0 0 7.69 0v10.4a6.44 6.44 0 0 1-7.69 0v0a6.44 6.44 0 0 0-7.69 0" class="cls-1" clip-path="url(#clipPath12)"/><path id="path1-2-8-2" fill="#ffab19" fill-opacity="1" stroke="#cf8b17" stroke-linecap="round" stroke-linejoin="round" stroke-opacity="1" d="M.75 2a6.44 6.44 0 0 1 7.69 0v0a6.44 6.44 0 0 0 7.69 0v10.4a6.44 6.44 0 0 1-7.69 0v0a6.44 6.44 0 0 0-7.69 0" class="cls-1" clip-path="url(#clipPath11)"/><path id="path1-2-8" fill="#59c059" fill-opacity="1" stroke="#389438" stroke-linecap="round" stroke-linejoin="round" stroke-opacity="1" d="M.75 2a6.44 6.44 0 0 1 7.69 0v0a6.44 6.44 0 0 0 7.69 0v10.4a6.44 6.44 0 0 1-7.69 0v0a6.44 6.44 0 0 0-7.69 0" class="cls-1" clip-path="url(#clipPath10)"/><path id="path1-2" fill="#4c97ff" fill-opacity="1" stroke="#3373cc" stroke-linecap="round" stroke-linejoin="round" stroke-opacity="1" d="M.75 2a6.44 6.44 0 0 1 7.69 0v0a6.44 6.44 0 0 0 7.69 0v10.4a6.44 6.44 0 0 1-7.69 0v0a6.44 6.44 0 0 0-7.69 0" class="cls-1" clip-path="url(#clipPath9)"/><path id="path1" fill="#96f" fill-opacity="1" stroke="#774dcb" stroke-opacity="1" d="M.75 2a6.44 6.44 0 0 1 7.69 0h0a6.44 6.44 0 0 0 7.69 0v10.4a6.44 6.44 0 0 1-7.69 0h0a6.44 6.44 0 0 0-7.69 0" class="cls-1" clip-path="url(#clipPath8)"/><path id="line1" fill="#4cbf56" stroke="#525b7a" stroke-linecap="round" stroke-linejoin="round" stroke-opacity="1" stroke-width="1.5" d="M.75 16.75v-16"/></svg>
